  0
SECTION
  2
HEADER
  9
$ACADVER
  1
AC1015
  9
$ACADMAINTVER
 70
     6
  9
$DWGCODEPAGE
  3
ANSI_1252
  9
$INSBASE
 10
0.0
 20
0.0
 30
0.0
  9
$EXTMIN
 10
-243.4571652184
 20
-376.8928782088
 30
0.0
  9
$EXTMAX
 10
125.1202456338
 20
55.9082424884
 30
0.0
  9
$LIMMIN
 10
0.0
 20
0.0
  9
$LIMMAX
 10
420.0
 20
297.0
  9
$ORTHOMODE
 70
     0
  9
$REGENMODE
 70
     1
  9
$FILLMODE
 70
     1
  9
$QTEXTMODE
 70
     0
  9
$MIRRTEXT
 70
     1
  9
$LTSCALE
 40
1.0
  9
$ATTMODE
 70
     1
  9
$TEXTSIZE
 40
3.175
  9
$TRACEWID
 40
1.0
  9
$TEXTSTYLE
  7
Standard
  9
$CLAYER
  8
0
  9
$CELTYPE
  6
ByLayer
  9
$CECOLOR
 62
   256
  9
$CELTSCALE
 40
1.0
  9
$DISPSILH
 70
     0
  9
$DIMSCALE
 40
1.0
  9
$DIMASZ
 40
3.302
  9
$DIMEXO
 40
1.27
  9
$DIMDLI
 40
3.75
  9
$DIMRND
 40
0.0
  9
$DIMDLE
 40
0.0
  9
$DIMEXE
 40
3.175
  9
$DIMTP
 40
0.0
  9
$DIMTM
 40
0.0
  9
$DIMTXT
 40
3.175
  9
$DIMCEN
 40
2.5
  9
$DIMTSZ
 40
0.0
  9
$DIMTOL
 70
     0
  9
$DIMLIM
 70
     0
  9
$DIMTIH
 70
     1
  9
$DIMTOH
 70
     1
  9
$DIMSE1
 70
     0
  9
$DIMSE2
 70
     0
  9
$DIMTAD
 70
     0
  9
$DIMZIN
 70
     0
  9
$DIMBLK
  1

  9
$DIMASO
 70
     1
  9
$DIMSHO
 70
     1
  9
$DIMPOST
  1

  9
$DIMAPOST
  1

  9
$DIMALT
 70
     0
  9
$DIMALTD
 70
     3
  9
$DIMALTF
 40
0.0393700787
  9
$DIMLFAC
 40
1.0
  9
$DIMTOFL
 70
     1
  9
$DIMTVP
 40
0.0
  9
$DIMTIX
 70
     0
  9
$DIMSOXD
 70
     0
  9
$DIMSAH
 70
     0
  9
$DIMBLK1
  1

  9
$DIMBLK2
  1

  9
$DIMSTYLE
  2
ISO-25
  9
$DIMCLRD
 70
     0
  9
$DIMCLRE
 70
     0
  9
$DIMCLRT
 70
     0
  9
$DIMTFAC
 40
1.0
  9
$DIMGAP
 40
1.524
  9
$DIMJUST
 70
     0
  9
$DIMSD1
 70
     0
  9
$DIMSD2
 70
     0
  9
$DIMTOLJ
 70
     0
  9
$DIMTZIN
 70
     0
  9
$DIMALTZ
 70
     0
  9
$DIMALTTZ
 70
     0
  9
$DIMUPT
 70
     0
  9
$DIMDEC
 70
     2
  9
$DIMTDEC
 70
     2
  9
$DIMALTU
 70
     2
  9
$DIMALTTD
 70
     3
  9
$DIMTXSTY
  7
Standard
  9
$DIMAUNIT
 70
     0
  9
$DIMADEC
 70
     2
  9
$DIMALTRND
 40
0.0
  9
$DIMAZIN
 70
     0
  9
$DIMDSEP
 70
    44
  9
$DIMATFIT
 70
     3
  9
$DIMFRAC
 70
     0
  9
$DIMLDRBLK
  1

  9
$DIMLUNIT
 70
     2
  9
$DIMLWD
 70
    -2
  9
$DIMLWE
 70
    -2
  9
$DIMTMOVE
 70
     0
  9
$LUNITS
 70
     2
  9
$LUPREC
 70
     2
  9
$SKETCHINC
 40
1.0
  9
$FILLETRAD
 40
10.0
  9
$AUNITS
 70
     0
  9
$AUPREC
 70
     2
  9
$MENU
  1
.
  9
$ELEVATION
 40
0.0
  9
$PELEVATION
 40
0.0
  9
$THICKNESS
 40
0.0
  9
$LIMCHECK
 70
     0
  9
$CHAMFERA
 40
10.0
  9
$CHAMFERB
 40
10.0
  9
$CHAMFERC
 40
20.0
  9
$CHAMFERD
 40
0.0
  9
$SKPOLY
 70
     0
  9
$TDCREATE
 40
2456677.956280116
  9
$TDUCREATE
 40
2456678.206280116
  9
$TDUPDATE
 40
2456677.956316424
  9
$TDUUPDATE
 40
2456678.206316424
  9
$TDINDWG
 40
0.0000000116
  9
$TDUSRTIMER
 40
0.0000000116
  9
$USRTIMER
 70
     1
  9
$ANGBASE
 50
0.0
  9
$ANGDIR
 70
     0
  9
$PDMODE
 70
     0
  9
$PDSIZE
 40
-1.0
  9
$PLINEWID
 40
0.0
  9
$SPLFRAME
 70
     0
  9
$SPLINETYPE
 70
     6
  9
$SPLINESEGS
 70
     8
  9
$HANDSEED
  5
299
  9
$SURFTAB1
 70
     6
  9
$SURFTAB2
 70
     6
  9
$SURFTYPE
 70
     6
  9
$SURFU
 70
     6
  9
$SURFV
 70
     6
  9
$UCSBASE
  2

  9
$UCSNAME
  2

  9
$UCSORG
 10
0.0
 20
0.0
 30
0.0
  9
$UCSXDIR
 10
1.0
 20
0.0
 30
0.0
  9
$UCSYDIR
 10
0.0
 20
1.0
 30
0.0
  9
$UCSORTHOREF
  2

  9
$UCSORTHOVIEW
 70
     0
  9
$UCSORGTOP
 10
0.0
 20
0.0
 30
0.0
  9
$UCSORGBOTTOM
 10
0.0
 20
0.0
 30
0.0
  9
$UCSORGLEFT
 10
0.0
 20
0.0
 30
0.0
  9
$UCSORGRIGHT
 10
0.0
 20
0.0
 30
0.0
  9
$UCSORGFRONT
 10
0.0
 20
0.0
 30
0.0
  9
$UCSORGBACK
 10
0.0
 20
0.0
 30
0.0
  9
$PUCSBASE
  2

  9
$PUCSNAME
  2

  9
$PUCSORG
 10
0.0
 20
0.0
 30
0.0
  9
$PUCSXDIR
 10
1.0
 20
0.0
 30
0.0
  9
$PUCSYDIR
 10
0.0
 20
1.0
 30
0.0
  9
$PUCSORTHOREF
  2

  9
$PUCSORTHOVIEW
 70
     0
  9
$PUCSORGTOP
 10
0.0
 20
0.0
 30
0.0
  9
$PUCSORGBOTTOM
 10
0.0
 20
0.0
 30
0.0
  9
$PUCSORGLEFT
 10
0.0
 20
0.0
 30
0.0
  9
$PUCSORGRIGHT
 10
0.0
 20
0.0
 30
0.0
  9
$PUCSORGFRONT
 10
0.0
 20
0.0
 30
0.0
  9
$PUCSORGBACK
 10
0.0
 20
0.0
 30
0.0
  9
$USERI1
 70
     0
  9
$USERI2
 70
     0
  9
$USERI3
 70
     0
  9
$USERI4
 70
     0
  9
$USERI5
 70
     0
  9
$USERR1
 40
0.0
  9
$USERR2
 40
0.0
  9
$USERR3
 40
0.0
  9
$USERR4
 40
0.0
  9
$USERR5
 40
0.0
  9
$WORLDVIEW
 70
     1
  9
$SHADEDGE
 70
     3
  9
$SHADEDIF
 70
    70
  9
$TILEMODE
 70
     1
  9
$MAXACTVP
 70
    64
  9
$PINSBASE
 10
0.0
 20
0.0
 30
0.0
  9
$PLIMCHECK
 70
     0
  9
$PEXTMIN
 10
1.0000000000E+20
 20
1.0000000000E+20
 30
1.0000000000E+20
  9
$PEXTMAX
 10
-1.0000000000E+20
 20
-1.0000000000E+20
 30
-1.0000000000E+20
  9
$PLIMMIN
 10
0.0
 20
0.0
  9
$PLIMMAX
 10
420.0
 20
297.0
  9
$UNITMODE
 70
     0
  9
$VISRETAIN
 70
     1
  9
$PLINEGEN
 70
     0
  9
$PSLTSCALE
 70
     1
  9
$TREEDEPTH
 70
  3020
  9
$CMLSTYLE
  2
Standard
  9
$CMLJUST
 70
     0
  9
$CMLSCALE
 40
20.0
  9
$PROXYGRAPHICS
 70
     1
  9
$MEASUREMENT
 70
     1
  9
$CELWEIGHT
370
    -1
  9
$ENDCAPS
280
     0
  9
$JOINSTYLE
280
     0
  9
$LWDISPLAY
290
     1
  9
$INSUNITS
 70
     4
  9
$HYPERLINKBASE
  1

  9
$STYLESHEET
  1

  9
$XEDIT
290
     1
  9
$CEPSNTYPE
380
     0
  9
$PSTYLEMODE
290
     1
  9
$FINGERPRINTGUID
  2
{8DB957AD-9EB3-4C91-B7D6-1A4EC8E21042}
  9
$VERSIONGUID
  2
{FAEB1C32-E019-11D5-929B-00C0DF256EC4}
  9
$EXTNAMES
290
     1
  9
$PSVPSCALE
 40
0.0
  9
$OLESTARTUP
290
     0
  0
ENDSEC
  0
SECTION
  2
CLASSES
  0
CLASS
  1
ACDBDICTIONARYWDFLT
  2
AcDbDictionaryWithDefault
  3
ObjectDBX Classes
 90
        0
280
     0
281
     0
  0
CLASS
  1
VISUALSTYLE
  2
AcDbVisualStyle
  3
ObjectDBX Classes
 90
     4095
280
     0
281
     0
  0
CLASS
  1
MATERIAL
  2
AcDbMaterial
  3
ObjectDBX Classes
 90
     1153
280
     0
281
     0
  0
CLASS
  1
ACDBPLACEHOLDER
  2
AcDbPlaceHolder
  3
ObjectDBX Classes
 90
        0
280
     0
281
     0
  0
CLASS
  1
LAYOUT
  2
AcDbLayout
  3
ObjectDBX Classes
 90
        0
280
     0
281
     0
  0
ENDSEC
  0
SECTION
  2
TABLES
  0
TABLE
  2
VPORT
  5
8
330
0
100
AcDbSymbolTable
 70
     1
  0
VPORT
  5
29
330
8
100
AcDbSymbolTableRecord
100
AcDbViewportTableRecord
  2
*Active
 70
     0
 10
0.0
 20
0.0
 11
1.0
 21
1.0
 12
-59.1684597923
 22
-160.4923178602
 13
0.0
 23
0.0
 14
10.0
 24
10.0
 15
10.0
 25
10.0
 16
0.0
 26
0.0
 36
1.0
 17
0.0
 27
0.0
 37
0.0
 40
441.4571431112
 41
0.8516091877
 42
50.0
 43
0.0
 44
0.0
 50
0.0
 51
0.0
 71
     0
 72
   100
 73
     1
 74
     3
 75
     0
 76
     0
 77
     0
 78
     0
281
     0
 65
     1
110
0.0
120
0.0
130
0.0
111
1.0
121
0.0
131
0.0
112
0.0
122
1.0
132
0.0
 79
     0
146
0.0
  0
ENDTAB
  0
TABLE
  2
LTYPE
  5
5
330
0
100
AcDbSymbolTable
 70
     6
  0
LTYPE
  5
14
330
5
100
AcDbSymbolTableRecord
100
AcDbLinetypeTableRecord
  2
ByBlock
 70
     0
  3

 72
    65
 73
     0
 40
0.0
  0
LTYPE
  5
15
330
5
100
AcDbSymbolTableRecord
100
AcDbLinetypeTableRecord
  2
ByLayer
 70
     0
  3

 72
    65
 73
     0
 40
0.0
  0
LTYPE
  5
16
330
5
100
AcDbSymbolTableRecord
100
AcDbLinetypeTableRecord
  2
Continuous
 70
     0
  3
Solid line
 72
    65
 73
     0
 40
0.0
  0
LTYPE
  5
3F
330
5
100
AcDbSymbolTableRecord
100
AcDbLinetypeTableRecord
  2
HIDDEN
 70
     0
  3
Hidden __ __ __ __ __ __ __ __ __ __ __ __ __ __
 72
    65
 73
     2
 40
1.905
 49
1.27
 74
     0
 49
-0.635
 74
     0
  0
LTYPE
  5
40
330
5
100
AcDbSymbolTableRecord
100
AcDbLinetypeTableRecord
  2
PHANTOM
 70
     0
  3
Phantom ______  __  __  ______  __  __  ______
 72
    65
 73
     6
 40
12.7
 49
6.35
 74
     0
 49
-1.27
 74
     0
 49
1.27
 74
     0
 49
-1.27
 74
     0
 49
1.27
 74
     0
 49
-1.27
 74
     0
  0
LTYPE
  5
41
330
5
100
AcDbSymbolTableRecord
100
AcDbLinetypeTableRecord
  2
CENTER
 70
     0
  3
Center ____ _ ____ _ ____ _ ____ _ ____ _ ____
 72
    65
 73
     4
 40
10.16
 49
6.35
 74
     0
 49
-1.27
 74
     0
 49
1.27
 74
     0
 49
-1.27
 74
     0
  0
LTYPE
  5
42
330
5
100
AcDbSymbolTableRecord
100
AcDbLinetypeTableRecord
  2
CENTERX2
 70
     0
  3
Center (2x) ________  __  ________  __  _____
 72
    65
 73
     4
 40
20.32
 49
12.7
 74
     0
 49
-2.54
 74
     0
 49
2.54
 74
     0
 49
-2.54
 74
     0
  0
LTYPE
  5
43
330
5
100
AcDbSymbolTableRecord
100
AcDbLinetypeTableRecord
  2
DOT2
 70
     0
  3
Dot (.5x) ........................................
 72
    65
 73
     2
 40
0.635
 49
0.0
 74
     0
 49
-0.635
 74
     0
  0
ENDTAB
  0
TABLE
  2
LAYER
  5
2
330
0
100
AcDbSymbolTable
 70
     1
  0
LAYER
  5
10
330
2
100
AcDbSymbolTableRecord
100
AcDbLayerTableRecord
  2
0
 70
     0
 62
     7
  6
Continuous
370
    -3
390
F
  0
ENDTAB
  0
TABLE
  2
STYLE
  5
3
330
0
100
AcDbSymbolTable
 70
     1
  0
STYLE
  5
11
330
3
100
AcDbSymbolTableRecord
100
AcDbTextStyleTableRecord
  2
Standard
 70
     0
 40
0.0
 41
1.0
 50
0.0
 71
     0
 42
3.175
  3
txt
  4

  0
ENDTAB
  0
TABLE
  2
VIEW
  5
6
330
0
100
AcDbSymbolTable
 70
     0
  0
ENDTAB
  0
TABLE
  2
UCS
  5
7
330
0
100
AcDbSymbolTable
 70
     0
  0
ENDTAB
  0
TABLE
  2
APPID
  5
9
330
0
100
AcDbSymbolTable
 70
     1
  0
APPID
  5
12
330
9
100
AcDbSymbolTableRecord
100
AcDbRegAppTableRecord
  2
ACAD
 70
     0
  0
ENDTAB
  0
TABLE
  2
DIMSTYLE
  5
A
330
0
100
AcDbSymbolTable
 70
     1
100
AcDbDimStyleTable
  0
DIMSTYLE
105
27
330
A
100
AcDbSymbolTableRecord
100
AcDbDimStyleTableRecord
  2
ISO-25
 70
     0
 41
2.5
 42
0.625
 43
3.75
 44
1.25
 73
     0
 74
     0
 77
     1
 78
     8
140
2.5
141
2.5
143
0.0393700787
147
0.625
171
     3
172
     1
178
     0
271
     2
272
     2
274
     3
278
    44
283
     0
284
     8
340
11
  0
ENDTAB
  0
TABLE
  2
BLOCK_RECORD
  5
1
330
0
100
AcDbSymbolTable
 70
     1
  0
BLOCK_RECORD
  5
1F
330
1
100
AcDbSymbolTableRecord
100
AcDbBlockTableRecord
  2
*Model_Space
340
22
  0
BLOCK_RECORD
  5
1B
330
1
100
AcDbSymbolTableRecord
100
AcDbBlockTableRecord
  2
*Paper_Space
340
1E
  0
BLOCK_RECORD
  5
23
330
1
100
AcDbSymbolTableRecord
100
AcDbBlockTableRecord
  2
*Paper_Space0
340
26
  0
ENDTAB
  0
ENDSEC
  0
SECTION
  2
BLOCKS
  0
BLOCK
  5
20
330
1F
100
AcDbEntity
  8
0
100
AcDbBlockBegin
  2
*Model_Space
 70
     0
 10
0.0
 20
0.0
 30
0.0
  3
*Model_Space
  1

  0
ENDBLK
  5
21
330
1F
100
AcDbEntity
  8
0
100
AcDbBlockEnd
  0
BLOCK
  5
1C
330
1B
100
AcDbEntity
 67
     1
  8
0
100
AcDbBlockBegin
  2
*Paper_Space
 70
     0
 10
0.0
 20
0.0
 30
0.0
  3
*Paper_Space
  1

  0
ENDBLK
  5
1D
330
1B
100
AcDbEntity
 67
     1
  8
0
100
AcDbBlockEnd
  0
BLOCK
  5
24
330
23
100
AcDbEntity
  8
0
100
AcDbBlockBegin
  2
*Paper_Space0
 70
     0
 10
0.0
 20
0.0
 30
0.0
  3
*Paper_Space0
  1

  0
ENDBLK
  5
25
330
23
100
AcDbEntity
  8
0
100
AcDbBlockEnd
  0
ENDSEC
  0
SECTION
  2
ENTITIES
  0
CIRCLE
  5
47
330
1F
100
AcDbEntity
  8
0
  6
Continuous
 62
     7
370
    15
100
AcDbCircle
 10
-43.4571652184
 20
-316.7898926619
 30
0.0
 40
3.24999999999995
  0
CIRCLE
  5
48
330
1F
100
AcDbEntity
  8
0
  6
Continuous
 62
     7
370
    15
100
AcDbCircle
 10
-95.668344379
 20
-331.7093208204
 30
0.0
 40
3.000000000042647
  0
CIRCLE
  5
4D
330
1F
100
AcDbEntity
  8
0
  6
Continuous
 62
     7
370
    15
100
AcDbCircle
 10
-223.4571652184
 20
-356.7898926619
 30
0.0
 40
3.249999999999972
  0
CIRCLE
  5
4E
330
1F
100
AcDbEntity
  8
0
  6
Continuous
 62
     7
370
    15
100
AcDbCircle
 10
-95.668344379
 20
-284.7193208249
 30
0.0
 40
3.000000000015277
  0
CIRCLE
  5
62
330
1F
100
AcDbEntity
  8
0
  6
Continuous
 62
     7
370
    15
100
AcDbCircle
 10
-223.4571652184
 20
-316.7898926619
 30
0.0
 40
3.249999999999915
  0
CIRCLE
  5
63
330
1F
100
AcDbEntity
  8
0
  6
Continuous
 62
     7
370
    15
100
AcDbCircle
 10
-43.4571652184
 20
-356.7898926619
 30
0.0
 40
3.250000000000014
  0
CIRCLE
  5
6C
330
1F
100
AcDbEntity
  8
0
  6
Continuous
 62
     7
370
    15
100
AcDbCircle
 10
103.1043658065
 20
-107.581690213
 30
0.0
 40
3.25
  0
CIRCLE
  5
6D
330
1F
100
AcDbEntity
  8
0
  6
Continuous
 62
     7
370
    15
100
AcDbCircle
 10
103.1043658065
 20
-61.381690213
 30
0.0
 40
6.349999999999987
  0
CIRCLE
  5
76
330
1F
100
AcDbEntity
  8
0
  6
Continuous
 62
     7
370
    15
100
AcDbCircle
 10
12.0854819545
 20
-85.5148644123
 30
0.0
 40
1.749999999999988
  0
CIRCLE
  5
77
330
1F
100
AcDbEntity
  8
0
  6
Continuous
 62
     7
370
    15
100
AcDbCircle
 10
42.0854819545
 20
-85.5148644123
 30
0.0
 40
1.750000000000007
  0
CIRCLE
  5
78
330
1F
100
AcDbEntity
  8
0
  6
Continuous
 62
     7
370
    15
100
AcDbCircle
 10
12.0854819545
 20
-47.5148644123
 30
0.0
 40
1.749999999999995
  0
CIRCLE
  5
79
330
1F
100
AcDbEntity
  8
0
  6
Continuous
 62
     7
370
    15
100
AcDbCircle
 10
42.0854819545
 20
-47.5148644123
 30
0.0
 40
1.749999999999993
  0
CIRCLE
  5
7A
330
1F
100
AcDbEntity
  8
0
  6
Continuous
 62
     7
370
    15
100
AcDbCircle
 10
-11.8408745198
 20
5.8310573393
 30
0.0
 40
1.749999999999996
  0
CIRCLE
  5
7B
330
1F
100
AcDbEntity
  8
0
  6
Continuous
 62
     7
370
    15
100
AcDbCircle
 10
26.1591254802
 20
5.8310573393
 30
0.0
 40
1.750000000000015
  0
CIRCLE
  5
7C
330
1F
100
AcDbEntity
  8
0
  6
Continuous
 62
     7
370
    15
100
AcDbCircle
 10
-21.5608745197
 20
-9.168943072
 30
0.0
 40
2.999999999999995
  0
CIRCLE
  5
8D
330
1F
100
AcDbEntity
  8
0
  6
Continuous
 62
     7
370
    15
100
AcDbCircle
 10
26.1591254802
 20
-24.1689426607
 30
0.0
 40
1.75000000032631
  0
CIRCLE
  5
8E
330
1F
100
AcDbEntity
  8
0
  6
Continuous
 62
     7
370
    15
100
AcDbCircle
 10
-11.8408745198
 20
-24.1689426607
 30
0.0
 40
1.749999999986589
  0
CIRCLE
  5
8F
330
1F
100
AcDbEntity
  8
0
  6
Continuous
 62
     7
370
    15
100
AcDbCircle
 10
35.8791254803
 20
-9.1689422588
 30
0.0
 40
3.000000000000022
  0
CIRCLE
  5
99
330
1F
100
AcDbEntity
  8
0
  6
Continuous
 62
     7
370
    15
100
AcDbCircle
 10
-133.039958886
 20
25.2969364818
 30
0.0
 40
3.249999999999972
  0
CIRCLE
  5
9A
330
1F
100
AcDbEntity
  8
0
  6
Continuous
 62
     7
370
    15
100
AcDbCircle
 10
-173.039958886
 20
25.2969364818
 30
0.0
 40
5.999999999999972
  0
CIRCLE
  5
9C
330
1F
100
AcDbEntity
  8
0
  6
Continuous
 62
     7
370
    15
100
AcDbCircle
 10
-229.239958886
 20
26.2469364818
 30
0.0
 40
4.25
  0
CIRCLE
  5
9D
330
1F
100
AcDbEntity
  8
0
  6
Continuous
 62
     7
370
    15
100
AcDbCircle
 10
-73.039958886
 20
24.3469364818
 30
0.0
 40
4.250000000000028
  0
CIRCLE
  5
A4
330
1F
100
AcDbEntity
  8
0
  6
Continuous
 62
     7
370
    15
100
AcDbCircle
 10
-7.4313160084
 20
-188.7164561808
 30
0.0
 40
1.5
  0
CIRCLE
  5
B3
330
1F
100
AcDbEntity
  8
0
  6
Continuous
 62
     7
370
    15
100
AcDbCircle
 10
2.0986839916
 20
-188.7164561808
 30
0.0
 40
6.349999994954118
  0
CIRCLE
  5
B4
330
1F
100
AcDbEntity
  8
0
  6
Continuous
 62
     7
370
    15
100
AcDbCircle
 10
-7.9713160084
 20
-159.9564561808
 30
0.0
 40
2.99999999921053
  0
CIRCLE
  5
B5
330
1F
100
AcDbEntity
  8
0
  6
Continuous
 62
     7
370
    15
100
AcDbCircle
 10
12.0286839916
 20
-159.9564561808
 30
0.0
 40
2.99999999921053
  0
CIRCLE
  5
B6
330
1F
100
AcDbEntity
  8
0
  6
Continuous
 62
     7
370
    15
100
AcDbCircle
 10
52.1036839916
 20
-159.9564561808
 30
0.0
 40
19.99999999999994
  0
CIRCLE
  5
B7
330
1F
100
AcDbEntity
  8
0
  6
Continuous
 62
     7
370
    15
100
AcDbCircle
 10
28.5177553164
 20
-183.5784561808
 30
0.0
 40
2.099999999999994
  0
CIRCLE
  5
B8
330
1F
100
AcDbEntity
  8
0
  6
Continuous
 62
     7
370
    15
100
AcDbCircle
 10
28.5177553164
 20
-136.3344561808
 30
0.0
 40
2.099999999999994
  0
CIRCLE
  5
B9
330
1F
100
AcDbEntity
  8
0
  6
Continuous
 62
     7
370
    15
100
AcDbCircle
 10
75.7256839916
 20
-136.3344561808
 30
0.0
 40
2.099999999999994
  0
CIRCLE
  5
BA
330
1F
100
AcDbEntity
  8
0
  6
Continuous
 62
     7
370
    15
100
AcDbCircle
 10
75.7617553164
 20
-183.5784561808
 30
0.0
 40
2.100000000000023
  0
CIRCLE
  5
BB
330
1F
100
AcDbEntity
  8
0
  6
Continuous
 62
     7
370
    15
100
AcDbCircle
 10
11.6286839916
 20
-188.7164561808
 30
0.0
 40
1.499999999999972
  0
CIRCLE
  5
C3
330
1F
100
AcDbEntity
  8
0
  6
Continuous
 62
     7
370
    15
100
AcDbCircle
 10
105.2282155077
 20
-348.1445748387
 30
0.0
 40
3.25
  0
CIRCLE
  5
C4
330
1F
100
AcDbEntity
  8
0
  6
Continuous
 62
     7
370
    15
100
AcDbCircle
 10
35.2782155077
 20
-324.3445748387
 30
0.0
 40
2.099999999999987
  0
CIRCLE
  5
C5
330
1F
100
AcDbEntity
  8
0
  6
Continuous
 62
     7
370
    15
100
AcDbCircle
 10
-11.9707127412
 20
-324.3445748387
 30
0.0
 40
2.099999999999993
  0
CIRCLE
  5
CA
330
1F
100
AcDbEntity
  8
0
  6
Continuous
 62
     7
370
    15
100
AcDbCircle
 10
35.2782155077
 20
-371.914166479
 30
0.0
 40
2.09999999999998
  0
CIRCLE
  5
CB
330
1F
100
AcDbEntity
  8
0
  6
Continuous
 62
     7
370
    15
100
AcDbCircle
 10
11.6542872588
 20
-347.9695748387
 30
0.0
 40
20.00558945876833
  0
CIRCLE
  5
CF
330
1F
100
AcDbEntity
  8
0
  6
Continuous
 62
     7
370
    15
100
AcDbCircle
 10
60.2282155077
 20
-308.1445748387
 30
0.0
 40
6.350000003599966
  0
CIRCLE
  5
D0
330
1F
100
AcDbEntity
  8
0
  6
Continuous
 62
     7
370
    15
100
AcDbCircle
 10
67.2282155077
 20
-348.1445748387
 30
0.0
 40
3.25
  0
CIRCLE
  5
D1
330
1F
100
AcDbEntity
  8
0
  6
Continuous
 62
     7
370
    15
100
AcDbCircle
 10
-11.9707127412
 20
-371.6247975373
 30
0.0
 40
2.099999999999961
  0
CIRCLE
  5
D3
330
1F
100
AcDbEntity
  8
0
  6
Continuous
 62
     7
370
    15
100
AcDbCircle
 10
-182.9402529104
 20
-100.5781500324
 30
0.0
 40
3.0
  0
CIRCLE
  5
D7
330
1F
100
AcDbEntity
  8
0
  6
Continuous
 62
     7
370
    15
100
AcDbCircle
 10
-182.9402529104
 20
-19.6281500324
 30
0.0
 40
3.0
  0
CIRCLE
  5
DA
330
1F
100
AcDbEntity
  8
0
  6
Continuous
 62
     7
370
    15
100
AcDbCircle
 10
-222.9402529104
 20
-19.6281500324
 30
0.0
 40
3.0
  0
CIRCLE
  5
E1
330
1F
100
AcDbEntity
  8
0
  6
Continuous
 62
     7
370
    15
100
AcDbCircle
 10
-182.9402529104
 20
-60.5781500324
 30
0.0
 40
3.000000000000028
  0
CIRCLE
  5
E2
330
1F
100
AcDbEntity
  8
0
  6
Continuous
 62
     7
370
    15
100
AcDbCircle
 10
-142.9402529104
 20
-19.6281500324
 30
0.0
 40
3.0
  0
CIRCLE
  5
E3
330
1F
100
AcDbEntity
  8
0
  6
Continuous
 62
     7
370
    15
100
AcDbCircle
 10
-179.5605295512
 20
-262.7371044008
 30
0.0
 40
3.250000000000028
  0
CIRCLE
  5
EC
330
1F
100
AcDbEntity
  8
0
  6
Continuous
 62
     7
370
    15
100
AcDbCircle
 10
-133.3605295512
 20
-262.7371044008
 30
0.0
 40
6.35000000000008
  0
CIRCLE
  5
EE
330
1F
100
AcDbEntity
  8
0
  6
Continuous
 62
     7
370
    15
100
AcDbCircle
 10
66.9095057636
 20
4.9361666543
 30
0.0
 40
1.750000000000004
  0
CIRCLE
  5
EF
330
1F
100
AcDbEntity
  8
0
  6
Continuous
 62
     7
370
    15
100
AcDbCircle
 10
104.9095057636
 20
4.9361666543
 30
0.0
 40
1.749999999999986
  0
CIRCLE
  5
F0
330
1F
100
AcDbEntity
  8
0
  6
Continuous
 62
     7
370
    15
100
AcDbCircle
 10
57.1895057636
 20
-10.063833757
 30
0.0
 40
2.999999999999986
  0
CIRCLE
  5
100
330
1F
100
AcDbEntity
  8
0
  6
Continuous
 62
     7
370
    15
100
AcDbCircle
 10
104.9095057635
 20
-25.0638333457
 30
0.0
 40
1.750000000326324
  0
CIRCLE
  5
101
330
1F
100
AcDbEntity
  8
0
  6
Continuous
 62
     7
370
    15
100
AcDbCircle
 10
66.9095057635
 20
-25.0638333457
 30
0.0
 40
1.749999999986578
  0
CIRCLE
  5
102
330
1F
100
AcDbEntity
  8
0
  6
Continuous
 62
     7
370
    15
100
AcDbCircle
 10
114.6295057636
 20
-10.0638329438
 30
0.0
 40
3.000000000000002
  0
CIRCLE
  5
109
330
1F
100
AcDbEntity
  8
0
  6
Continuous
 62
     7
370
    15
100
AcDbCircle
 10
105.1202456338
 20
-186.5716091991
 30
0.0
 40
3.25
  0
CIRCLE
  5
10C
330
1F
100
AcDbEntity
  8
0
  6
Continuous
 62
     7
370
    15
100
AcDbCircle
 10
105.1202456338
 20
-140.3716091991
 30
0.0
 40
6.349999999999966
  0
CIRCLE
  5
10D
330
1F
100
AcDbEntity
  8
0
  6
Continuous
 62
     7
370
    15
100
AcDbCircle
 10
-39.4257878124
 20
-107.3742695541
 30
0.0
 40
2.999999999999979
  0
CIRCLE
  5
10E
330
1F
100
AcDbEntity
  8
0
  6
Continuous
 62
     7
370
    15
100
AcDbCircle
 10
-79.4257878124
 20
-107.3742695541
 30
0.0
 40
3.0
  0
CIRCLE
  5
10F
330
1F
100
AcDbEntity
  8
0
  6
Continuous
 62
     7
370
    15
100
AcDbCircle
 10
-79.4257878124
 20
-26.4242695541
 30
0.0
 40
3.0
  0
CIRCLE
  5
11C
330
1F
100
AcDbEntity
  8
0
  6
Continuous
 62
     7
370
    15
100
AcDbCircle
 10
-79.4257878124
 20
-66.4242695541
 30
0.0
 40
2.999999999999972
  0
CIRCLE
  5
11D
330
1F
100
AcDbEntity
  8
0
  6
Continuous
 62
     7
370
    15
100
AcDbCircle
 10
-119.4257878124
 20
-107.3742695541
 30
0.0
 40
2.999999999999957
  0
CIRCLE
  5
11F
330
1F
100
AcDbEntity
  8
0
  6
Continuous
 62
     7
370
    15
100
AcDbCircle
 10
-180.417773939
 20
-308.1537542178
 30
0.0
 40
3.250000000000028
  0
CIRCLE
  5
122
330
1F
100
AcDbEntity
  8
0
  6
Continuous
 62
     7
370
    15
100
AcDbCircle
 10
-134.217773939
 20
-308.1537542178
 30
0.0
 40
6.350000000000094
  0
CIRCLE
  5
128
330
1F
100
AcDbEntity
  8
0
  6
Continuous
 62
     7
370
    15
100
AcDbCircle
 10
-143.0641104
 20
-185.5406467968
 30
0.0
 40
1.499999999999943
  0
CIRCLE
  5
129
330
1F
100
AcDbEntity
  8
0
  6
Continuous
 62
     7
370
    15
100
AcDbCircle
 10
-121.1041104
 20
-214.3006467968
 30
0.0
 40
3.000000000032685
  0
CIRCLE
  5
13A
330
1F
100
AcDbEntity
  8
0
  6
Continuous
 62
     7
370
    15
100
AcDbCircle
 10
-133.5341104
 20
-185.5406467968
 30
0.0
 40
6.349999999186906
  0
CIRCLE
  5
13B
330
1F
100
AcDbEntity
  8
0
  6
Continuous
 62
     7
370
    15
100
AcDbCircle
 10
-176.1041104
 20
-214.3006467968
 30
0.0
 40
3.0000000000299
  0
CIRCLE
  5
13C
330
1F
100
AcDbEntity
  8
0
  6
Continuous
 62
     7
370
    15
100
AcDbCircle
 10
-124.0041104
 20
-185.5406467968
 30
0.0
 40
1.499999999999943
  0
CIRCLE
  5
146
330
1F
100
AcDbEntity
  8
0
  6
Continuous
 62
     7
370
    15
100
AcDbCircle
 10
-222.9241140727
 20
-151.4476576718
 30
0.0
 40
3.249999999999972
  0
CIRCLE
  5
147
330
1F
100
AcDbEntity
  8
0
  6
Continuous
 62
     7
370
    15
100
AcDbCircle
 10
-95.1352932333
 20
-176.5282295133
 30
0.0
 40
3.000000000042618
  0
CIRCLE
  5
151
330
1F
100
AcDbEntity
  8
0
  6
Continuous
 62
     7
370
    15
100
AcDbCircle
 10
-42.9241140727
 20
-191.4476576718
 30
0.0
 40
3.250000000000014
  0
CIRCLE
  5
154
330
1F
100
AcDbEntity
  8
0
  6
Continuous
 62
     7
370
    15
100
AcDbCircle
 10
-95.1352932333
 20
-223.5182295088
 30
0.0
 40
3.000000000015277
  0
CIRCLE
  5
15B
330
1F
100
AcDbEntity
  8
0
  6
Continuous
 62
     7
370
    15
100
AcDbCircle
 10
-222.9241140727
 20
-191.4476576718
 30
0.0
 40
3.249999999999972
  0
CIRCLE
  5
15C
330
1F
100
AcDbEntity
  8
0
  6
Continuous
 62
     7
370
    15
100
AcDbCircle
 10
-42.9241140727
 20
-151.4476576718
 30
0.0
 40
3.250000000000021
  0
CIRCLE
  5
161
330
1F
100
AcDbEntity
  8
0
  6
Continuous
 62
     7
370
    15
100
AcDbCircle
 10
-222.0954656069
 20
-235.2286698312
 30
0.0
 40
6.349999999999994
  0
CIRCLE
  5
162
330
1F
100
AcDbEntity
  8
0
  6
Continuous
 62
     7
370
    15
100
AcDbCircle
 10
-222.0954656069
 20
-281.4286698312
 30
0.0
 40
3.25
  0
CIRCLE
  5
172
330
1F
100
AcDbEntity
  8
0
  6
Continuous
 62
     7
370
    15
100
AcDbCircle
 10
111.1462518074
 20
34.9582424884
 30
0.0
 40
4.250000000000014
  0
CIRCLE
  5
173
330
1F
100
AcDbEntity
  8
0
  6
Continuous
 62
     7
370
    15
100
AcDbCircle
 10
51.1462518074
 20
35.9082424884
 30
0.0
 40
3.250000000000007
  0
CIRCLE
  5
179
330
1F
100
AcDbEntity
  8
0
  6
Continuous
 62
     7
370
    15
100
AcDbCircle
 10
11.1462518074
 20
35.9082424884
 30
0.0
 40
6.000000000000014
  0
CIRCLE
  5
17A
330
1F
100
AcDbEntity
  8
0
  6
Continuous
 62
     7
370
    15
100
AcDbCircle
 10
-45.0537481926
 20
36.8582424884
 30
0.0
 40
4.250000000000014
  0
CIRCLE
  5
17D
330
1F
100
AcDbEntity
  8
0
  6
Continuous
 62
     7
370
    15
100
AcDbCircle
 10
-43.3477843784
 20
-281.8988955899
 30
0.0
 40
3.25
  0
CIRCLE
  5
184
330
1F
100
AcDbEntity
  8
0
  6
Continuous
 62
     7
370
    15
100
AcDbCircle
 10
-43.3477843784
 20
-235.6988955899
 30
0.0
 40
6.349999999999994
  0
CIRCLE
  5
185
330
1F
100
AcDbEntity
  8
0
  6
Continuous
 62
     7
370
    15
100
AcDbCircle
 10
103.9600223421
 20
-254.9221691009
 30
0.0
 40
3.25
  0
CIRCLE
  5
186
330
1F
100
AcDbEntity
  8
0
  6
Continuous
 62
     7
370
    15
100
AcDbCircle
 10
10.3860940932
 20
-254.7471691009
 30
0.0
 40
20.00558945876836
  0
CIRCLE
  5
195
330
1F
100
AcDbEntity
  8
0
  6
Continuous
 62
     7
370
    15
100
AcDbCircle
 10
58.9600223421
 20
-214.9221691009
 30
0.0
 40
6.35000000359986
  0
CIRCLE
  5
196
330
1F
100
AcDbEntity
  8
0
  6
Continuous
 62
     7
370
    15
100
AcDbCircle
 10
65.9600223421
 20
-254.9221691009
 30
0.0
 40
3.250000000000028
  0
CIRCLE
  5
197
330
1F
100
AcDbEntity
  8
0
  6
Continuous
 62
     7
370
    15
100
AcDbCircle
 10
-13.2389059068
 20
-231.1221691009
 30
0.0
 40
2.100000000000001
  0
CIRCLE
  5
198
330
1F
100
AcDbEntity
  8
0
  6
Continuous
 62
     7
370
    15
100
AcDbCircle
 10
34.0100223421
 20
-231.1221691009
 30
0.0
 40
2.100000000000001
  0
CIRCLE
  5
199
330
1F
100
AcDbEntity
  8
0
  6
Continuous
 62
     7
370
    15
100
AcDbCircle
 10
-13.2389059068
 20
-278.4023917994
 30
0.0
 40
2.100000000000001
  0
CIRCLE
  5
19A
330
1F
100
AcDbEntity
  8
0
  6
Continuous
 62
     7
370
    15
100
AcDbCircle
 10
34.0100223421
 20
-278.6917607412
 30
0.0
 40
2.100000000000001
  0
LINE
  5
19B
330
1F
100
AcDbEntity
  8
0
  6
Continuous
 62
     7
370
    15
100
AcDbLine
 10
-243.4571652184
 20
-299.9698926619
 30
0.0
 11
-243.4571652184
 21
-373.6098926619
 31
0.0
  0
LINE
  5
19C
330
1F
100
AcDbEntity
  8
0
  6
Continuous
 62
     7
370
    15
100
AcDbLine
 10
-206.6371652184
 20
-296.7898926619
 30
0.0
 11
-240.2771652184
 21
-296.7898926619
 31
0.0
  0
LINE
  5
19D
330
1F
100
AcDbEntity
  8
0
  6
Continuous
 62
     7
370
    15
100
AcDbLine
 10
-240.2771652184
 20
-376.7898926619
 30
0.0
 11
-26.6371652184
 21
-376.7898926619
 31
0.0
  0
LINE
  5
19E
330
1F
100
AcDbEntity
  8
0
  6
Continuous
 62
     7
370
    15
100
AcDbLine
 10
-103.148344379
 20
-336.7898926619
 30
0.0
 11
-200.2771652184
 21
-336.7898926619
 31
0.0
  0
LINE
  5
19F
330
1F
100
AcDbEntity
  8
0
  6
Continuous
 62
     7
370
    15
100
AcDbLine
 10
-203.4571652184
 20
-333.6098926619
 30
0.0
 11
-203.4571652184
 21
-299.9698926619
 31
0.0
  0
LINE
  5
1A0
330
1F
100
AcDbEntity
  8
0
  6
Continuous
 62
     7
370
    15
100
AcDbLine
 10
-66.6371652184
 20
-328.3611738198
 30
0.0
 11
-85.00628595
 21
-328.3611738198
 31
0.0
  0
LINE
  5
1A1
330
1F
100
AcDbEntity
  8
0
  6
Continuous
 62
     7
370
    15
100
AcDbLine
 10
-63.4571652184
 20
-299.9698926619
 30
0.0
 11
-63.4571652184
 21
-325.1811738198
 31
0.0
  0
LINE
  5
1A2
330
1F
100
AcDbEntity
  8
0
  6
Continuous
 62
     7
370
    15
100
AcDbLine
 10
-26.6371652184
 20
-296.7898926619
 30
0.0
 11
-60.2771652184
 21
-296.7898926619
 31
0.0
  0
LINE
  5
1A3
330
1F
100
AcDbEntity
  8
0
  6
Continuous
 62
     7
370
    15
100
AcDbLine
 10
-23.4571652184
 20
-373.6098926619
 30
0.0
 11
-23.4571652184
 21
-299.9698926619
 31
0.0
  0
LINE
  5
1A4
330
1F
100
AcDbEntity
  8
0
  6
Continuous
 62
     7
370
    15
100
AcDbLine
 10
-103.148344379
 20
-326.7898926619
 30
0.0
 11
-103.148344379
 21
-336.7898926619
 31
0.0
  0
LINE
  5
1A5
330
1F
100
AcDbEntity
  8
0
  6
Continuous
 62
     7
370
    15
100
AcDbLine
 10
-101.1141126948
 20
-326.7898926619
 30
0.0
 11
-103.148344379
 21
-326.7898926619
 31
0.0
  0
LINE
  5
1A6
330
1F
100
AcDbEntity
  8
0
  6
Continuous
 62
     7
370
    15
100
AcDbLine
 10
-101.1141126948
 20
-289.6393904385
 30
0.0
 11
-101.1141126948
 21
-326.7898926619
 31
0.0
  0
LINE
  5
1A7
330
1F
100
AcDbEntity
  8
0
  6
Continuous
 62
     7
370
    15
100
AcDbLine
 10
-103.148344379
 20
-289.6393904385
 30
0.0
 11
-101.1141126948
 21
-289.6393904385
 31
0.0
  0
LINE
  5
1A8
330
1F
100
AcDbEntity
  8
0
  6
Continuous
 62
     7
370
    15
100
AcDbLine
 10
-103.148344379
 20
-279.6393904385
 30
0.0
 11
-103.148344379
 21
-289.6393904385
 31
0.0
  0
LINE
  5
1A9
330
1F
100
AcDbEntity
  8
0
  6
Continuous
 62
     7
370
    15
100
AcDbLine
 10
-91.36628595
 20
-279.6393904385
 30
0.0
 11
-103.148344379
 21
-279.6393904385
 31
0.0
  0
LINE
  5
1AA
330
1F
100
AcDbEntity
  8
0
  6
Continuous
 62
     7
370
    15
100
AcDbLine
 10
-88.18628595
 20
-325.1811738198
 30
0.0
 11
-88.18628595
 21
-282.8193904385
 31
0.0
  0
LINE
  5
1AB
330
1F
100
AcDbEntity
  8
0
  6
Continuous
 62
     7
370
    15
100
AcDbLine
 10
86.2793658065
 20
-41.381690213
 30
0.0
 11
119.9293658065
 21
-41.381690213
 31
0.0
  0
LINE
  5
1AC
330
1F
100
AcDbEntity
  8
0
  6
Continuous
 62
     7
370
    15
100
AcDbLine
 10
119.9293658065
 20
-117.581690213
 30
0.0
 11
86.2793658065
 21
-117.581690213
 31
0.0
  0
LINE
  5
1AD
330
1F
100
AcDbEntity
  8
0
  6
Continuous
 62
     7
370
    15
100
AcDbLine
 10
123.1043658065
 20
-44.556690213
 30
0.0
 11
123.1043658065
 21
-114.406690213
 31
0.0
  0
LINE
  5
1AE
330
1F
100
AcDbEntity
  8
0
  6
Continuous
 62
     7
370
    15
100
AcDbLine
 10
83.1043658065
 20
-114.406690213
 30
0.0
 11
83.1043658065
 21
-44.556690213
 31
0.0
  0
LINE
  5
1AF
330
1F
100
AcDbEntity
  8
0
  6
Continuous
 62
     7
370
    15
100
AcDbLine
 10
69.4854819545
 20
-36.1948644128
 30
0.0
 11
69.4854819545
 21
-122.8348644123
 31
0.0
  0
LINE
  5
1B0
330
1F
100
AcDbEntity
  8
0
  6
Continuous
 62
     7
370
    15
100
AcDbLine
 10
-12.1345180455
 20
-126.0148644123
 30
0.0
 11
66.3054819545
 21
-126.0148644123
 31
0.0
  0
LINE
  5
1B1
330
1F
100
AcDbEntity
  8
0
  6
Continuous
 62
     7
370
    15
100
AcDbLine
 10
-15.3145180455
 20
-36.1948644128
 30
0.0
 11
-15.3145180455
 21
-122.8348644123
 31
0.0
  0
LINE
  5
1B2
330
1F
100
AcDbEntity
  8
0
  6
Continuous
 62
     7
370
    15
100
AcDbLine
 10
-12.1345180455
 20
-33.0148644128
 30
0.0
 11
66.3054819545
 21
-33.0148644128
 31
0.0
  0
LINE
  5
1B3
330
1F
100
AcDbEntity
  8
0
  6
Continuous
 62
     7
370
    15
100
AcDbLine
 10
-26.7808745197
 20
-18.3839874811
 30
0.0
 11
-26.7808745197
 21
0.0461021504
 31
0.0
  0
LINE
  5
1B4
330
1F
100
AcDbEntity
  8
0
  6
Continuous
 62
     7
370
    15
100
AcDbLine
 10
-17.921940805
 20
9.8036366366
 30
0.0
 11
-25.4573969451
 21
3.0186814523
 31
0.0
  0
LINE
  5
1B5
330
1F
100
AcDbEntity
  8
0
  6
Continuous
 62
     7
370
    15
100
AcDbLine
 10
-15.2454183796
 20
10.8310573346
 30
0.0
 11
29.5636693402
 21
10.8310573346
 31
0.0
  0
LINE
  5
1B6
330
1F
100
AcDbEntity
  8
0
  6
Continuous
 62
     7
370
    15
100
AcDbLine
 10
39.7756479057
 20
3.0186814523
 30
0.0
 11
32.2401917656
 21
9.8036366366
 31
0.0
  0
LINE
  5
1B7
330
1F
100
AcDbEntity
  8
0
  6
Continuous
 62
     7
370
    15
100
AcDbLine
 10
41.0991254803
 20
0.0461021504
 30
0.0
 11
41.0991254803
 21
-18.3839874811
 31
0.0
  0
LINE
  5
1B8
330
1F
100
AcDbEntity
  8
0
  6
Continuous
 62
     7
370
    15
100
AcDbLine
 10
32.2401917656
 20
-28.1415219673
 30
0.0
 11
39.7756479057
 21
-21.3565667831
 31
0.0
  0
LINE
  5
1B9
330
1F
100
AcDbEntity
  8
0
  6
Continuous
 62
     7
370
    15
100
AcDbLine
 10
29.5636693402
 20
-29.1689426654
 30
0.0
 11
-15.2454183796
 21
-29.1689426654
 31
0.0
  0
LINE
  5
1BA
330
1F
100
AcDbEntity
  8
0
  6
Continuous
 62
     7
370
    15
100
AcDbLine
 10
-25.4573969451
 20
-21.3565667831
 30
0.0
 11
-17.921940805
 21
-28.1415219673
 31
0.0
  0
LINE
  5
1BB
330
1F
100
AcDbEntity
  8
0
  6
Continuous
 62
     7
370
    15
100
AcDbLine
 10
-108.2873436452
 20
45.1004338141
 30
0.0
 11
-70.6446725315
 21
37.3356144264
 31
0.0
  0
LINE
  5
1BC
330
1F
100
AcDbEntity
  8
0
  6
Continuous
 62
     7
370
    15
100
AcDbLine
 10
-70.78566205
 20
13.3506054587
 30
0.0
 11
-112.1557691226
 21
5.4654630507
 31
0.0
  0
LINE
  5
1BD
330
1F
100
AcDbEntity
  8
0
  6
Continuous
 62
     7
370
    15
100
AcDbLine
 10
-63.039958886
 20
28.002117094
 30
0.0
 11
-63.039958886
 21
22.7120788898
 31
0.0
  0
LINE
  5
1BE
330
1F
100
AcDbEntity
  8
0
  6
Continuous
 62
     7
370
    15
100
AcDbLine
 10
-113.9400659586
 20
5.2969364818
 30
0.0
 11
-188.1650092491
 21
5.2969364818
 31
0.0
  0
LINE
  5
1BF
330
1F
100
AcDbEntity
  8
0
  6
Continuous
 62
     7
370
    15
100
AcDbLine
 10
-188.3403157179
 20
45.2969364818
 30
0.0
 11
-110.2126299997
 21
45.2969364818
 31
0.0
  0
LINE
  5
1C0
330
1F
100
AcDbEntity
  8
0
  6
Continuous
 62
     7
370
    15
100
AcDbLine
 10
-190.287898941
 20
5.5363907843
 30
0.0
 11
-231.8328485779
 21
15.0294117764
 31
0.0
  0
LINE
  5
1C1
330
1F
100
AcDbEntity
  8
0
  6
Continuous
 62
     7
370
    15
100
AcDbLine
 10
-239.239958886
 20
24.3199574738
 30
0.0
 11
-239.239958886
 21
27.8860194582
 31
0.0
  0
LINE
  5
1C2
330
1F
100
AcDbEntity
  8
0
  6
Continuous
 62
     7
370
    15
100
AcDbLine
 10
-231.4933523662
 20
37.2476650238
 30
0.0
 11
-190.1237091982
 21
45.1285820473
 31
0.0
  0
LINE
  5
1C3
330
1F
100
AcDbEntity
  8
0
  6
Continuous
 62
     7
370
    15
100
AcDbLine
 10
23.0022484604
 20
-131.4943107978
 30
0.0
 11
-12.4561477999
 21
-139.0957044961
 31
0.0
  0
LINE
  5
1C4
330
1F
100
AcDbEntity
  8
0
  6
Continuous
 62
     7
370
    15
100
AcDbLine
 10
24.0670802519
 20
-131.3814561808
 30
0.0
 11
75.5986839916
 21
-131.3814561808
 31
0.0
  0
LINE
  5
1C5
330
1F
100
AcDbEntity
  8
0
  6
Continuous
 62
     7
370
    15
100
AcDbLine
 10
80.6786839916
 20
-136.4614561808
 30
0.0
 11
80.6786839916
 21
-183.4514561808
 31
0.0
  0
LINE
  5
1C6
330
1F
100
AcDbEntity
  8
0
  6
Continuous
 62
     7
370
    15
100
AcDbLine
 10
27.2377898273
 20
-188.5314561808
 30
0.0
 11
75.5986839916
 21
-188.5314561808
 31
0.0
  0
LINE
  5
1C7
330
1F
100
AcDbEntity
  8
0
  6
Continuous
 62
     7
370
    15
100
AcDbLine
 10
22.3990984519
 20
-192.0643731921
 30
0.0
 11
21.7982695313
 21
-193.9435391694
 31
0.0
  0
LINE
  5
1C8
330
1F
100
AcDbEntity
  8
0
  6
Continuous
 62
     7
370
    15
100
AcDbLine
 10
16.9595781559
 20
-197.4764561808
 30
0.0
 11
-11.3913160084
 21
-197.4764561808
 31
0.0
  0
LINE
  5
1C9
330
1F
100
AcDbEntity
  8
0
  6
Continuous
 62
     7
370
    15
100
AcDbLine
 10
-16.4713160084
 20
-144.0628498791
 30
0.0
 11
-16.4713160084
 21
-192.3964561808
 31
0.0
  0
LINE
  5
1CA
330
1F
100
AcDbEntity
  8
0
  6
Continuous
 62
     7
370
    15
100
AcDbLine
 10
40.5190720635
 20
-376.8627624029
 30
0.0
 11
117.3984224351
 21
-368.454083456
 31
0.0
  0
LINE
  5
1CB
330
1F
100
AcDbEntity
  8
0
  6
Continuous
 62
     7
370
    15
100
AcDbLine
 10
120.2282155077
 20
-329.4597028992
 30
0.0
 11
120.2282155077
 21
-365.2979058347
 31
0.0
  0
LINE
  5
1CC
330
1F
100
AcDbEntity
  8
0
  6
Continuous
 62
     7
370
    15
100
AcDbLine
 10
81.1581514775
 20
-289.0745108084
 30
0.0
 11
119.298279538
 21
-327.214638869
 31
0.0
  0
LINE
  5
1CD
330
1F
100
AcDbEntity
  8
0
  6
Continuous
 62
     7
370
    15
100
AcDbLine
 10
41.0395959326
 20
-288.1445748387
 30
0.0
 11
78.9130874472
 21
-288.1445748387
 31
0.0
  0
LINE
  5
1CE
330
1F
100
AcDbEntity
  8
0
  6
Continuous
 62
     7
370
    15
100
AcDbLine
 10
-14.277960106
 20
-317.9494730253
 30
0.0
 11
39.5163163296
 21
-288.5338533431
 31
0.0
  0
LINE
  5
1CF
330
1F
100
AcDbEntity
  8
0
  6
Continuous
 62
     7
370
    15
100
AcDbLine
 10
-16.9207127412
 20
-371.4955912647
 30
0.0
 11
-16.9207127412
 21
-322.4066274182
 31
0.0
  0
LINE
  5
1D0
330
1F
100
AcDbEntity
  8
0
  6
Continuous
 62
     7
370
    15
100
AcDbLine
 10
-11.8718238523
 20
-376.575495998
 30
0.0
 11
39.9356298686
 21
-376.8927829421
 31
0.0
  0
LINE
  5
1D1
330
1F
100
AcDbEntity
  8
0
  6
Continuous
 62
     7
370
    15
100
AcDbLine
 10
-123.275974443
 20
-41.2495930977
 30
0.0
 11
-162.0613225272
 21
-118.8202892661
 31
0.0
  0
LINE
  5
1D2
330
1F
100
AcDbEntity
  8
0
  6
Continuous
 62
     7
370
    15
100
AcDbLine
 10
-242.9402529104
 20
-37.9430857563
 30
0.0
 11
-242.9402529104
 21
-3.7581500324
 31
0.0
  0
LINE
  5
1D3
330
1F
100
AcDbEntity
  8
0
  6
Continuous
 62
     7
370
    15
100
AcDbLine
 10
-164.9056009946
 20
-120.5781500324
 30
0.0
 11
-200.9543607121
 21
-120.5781500324
 31
0.0
  0
LINE
  5
1D4
330
1F
100
AcDbEntity
  8
0
  6
Continuous
 62
     7
370
    15
100
AcDbLine
 10
-239.7602529104
 20
-0.5781500324
 30
0.0
 11
-126.1202529104
 21
-0.5781500324
 31
0.0
  0
LINE
  5
1D5
330
1F
100
AcDbEntity
  8
0
  6
Continuous
 62
     7
370
    15
100
AcDbLine
 10
-122.9402529104
 20
-3.7581500324
 30
0.0
 11
-122.9402529104
 21
-39.827453864
 31
0.0
  0
LINE
  5
1D6
330
1F
100
AcDbEntity
  8
0
  6
Continuous
 62
     7
370
    15
100
AcDbLine
 10
-203.8117734178
 20
-118.7937117935
 30
0.0
 11
-242.6176656162
 21
-39.3386475174
 31
0.0
  0
LINE
  5
1D7
330
1F
100
AcDbEntity
  8
0
  6
Continuous
 62
     7
370
    15
100
AcDbLine
 10
-186.3855295512
 20
-242.7371044008
 30
0.0
 11
-116.5355295512
 21
-242.7371044008
 31
0.0
  0
LINE
  5
1D8
330
1F
100
AcDbEntity
  8
0
  6
Continuous
 62
     7
370
    15
100
AcDbLine
 10
-113.3605295512
 20
-245.9121044008
 30
0.0
 11
-113.3605295512
 21
-279.5621044008
 31
0.0
  0
LINE
  5
1D9
330
1F
100
AcDbEntity
  8
0
  6
Continuous
 62
     7
370
    15
100
AcDbLine
 10
-116.5355295512
 20
-282.7371044008
 30
0.0
 11
-186.3855295512
 21
-282.7371044008
 31
0.0
  0
LINE
  5
1DA
330
1F
100
AcDbEntity
  8
0
  6
Continuous
 62
     7
370
    15
100
AcDbLine
 10
-189.5605295512
 20
-279.5621044008
 30
0.0
 11
-189.5605295512
 21
-245.9121044008
 31
0.0
  0
LINE
  5
1DB
330
1F
100
AcDbEntity
  8
0
  6
Continuous
 62
     7
370
    15
100
AcDbLine
 10
51.9695057636
 20
-19.2788781662
 30
0.0
 11
51.9695057636
 21
-0.8487885346
 31
0.0
  0
LINE
  5
1DC
330
1F
100
AcDbEntity
  8
0
  6
Continuous
 62
     7
370
    15
100
AcDbLine
 10
60.8284394783
 20
8.9087459515
 30
0.0
 11
53.2929833382
 21
2.1237907673
 31
0.0
  0
LINE
  5
1DD
330
1F
100
AcDbEntity
  8
0
  6
Continuous
 62
     7
370
    15
100
AcDbLine
 10
63.5049619037
 20
9.9361666496
 30
0.0
 11
108.3140496235
 21
9.9361666496
 31
0.0
  0
LINE
  5
1DE
330
1F
100
AcDbEntity
  8
0
  6
Continuous
 62
     7
370
    15
100
AcDbLine
 10
118.526028189
 20
2.1237907673
 30
0.0
 11
110.9905720489
 21
8.9087459515
 31
0.0
  0
LINE
  5
1DF
330
1F
100
AcDbEntity
  8
0
  6
Continuous
 62
     7
370
    15
100
AcDbLine
 10
119.8495057636
 20
-0.8487885346
 30
0.0
 11
119.8495057636
 21
-19.2788781662
 31
0.0
  0
LINE
  5
1E0
330
1F
100
AcDbEntity
  8
0
  6
Continuous
 62
     7
370
    15
100
AcDbLine
 10
110.9905720489
 20
-29.0364126523
 30
0.0
 11
118.526028189
 21
-22.2514574681
 31
0.0
  0
LINE
  5
1E1
330
1F
100
AcDbEntity
  8
0
  6
Continuous
 62
     7
370
    15
100
AcDbLine
 10
108.3140496235
 20
-30.0638333504
 30
0.0
 11
63.5049619037
 21
-30.0638333504
 31
0.0
  0
LINE
  5
1E2
330
1F
100
AcDbEntity
  8
0
  6
Continuous
 62
     7
370
    15
100
AcDbLine
 10
53.2929833382
 20
-22.2514574681
 30
0.0
 11
60.8284394783
 21
-29.0364126523
 31
0.0
  0
LINE
  5
1E3
330
1F
100
AcDbEntity
  8
0
  6
Continuous
 62
     7
370
    15
100
AcDbLine
 10
125.1202456338
 20
-123.5466091991
 30
0.0
 11
125.1202456338
 21
-193.3966091991
 31
0.0
  0
LINE
  5
1E4
330
1F
100
AcDbEntity
  8
0
  6
Continuous
 62
     7
370
    15
100
AcDbLine
 10
121.9452456338
 20
-196.5716091991
 30
0.0
 11
88.2952456338
 21
-196.5716091991
 31
0.0
  0
LINE
  5
1E5
330
1F
100
AcDbEntity
  8
0
  6
Continuous
 62
     7
370
    15
100
AcDbLine
 10
85.1202456338
 20
-193.3966091991
 30
0.0
 11
85.1202456338
 21
-123.5466091991
 31
0.0
  0
LINE
  5
1E6
330
1F
100
AcDbEntity
  8
0
  6
Continuous
 62
     7
370
    15
100
AcDbLine
 10
88.2952456338
 20
-120.3716091991
 30
0.0
 11
121.9452456338
 21
-120.3716091991
 31
0.0
  0
LINE
  5
1E7
330
1F
100
AcDbEntity
  8
0
  6
Continuous
 62
     7
370
    15
100
AcDbLine
 10
-22.6057878124
 20
-126.4242695541
 30
0.0
 11
-136.2457878124
 21
-126.4242695541
 31
0.0
  0
LINE
  5
1E8
330
1F
100
AcDbEntity
  8
0
  6
Continuous
 62
     7
370
    15
100
AcDbLine
 10
-139.4257878124
 20
-123.2442695541
 30
0.0
 11
-139.4257878124
 21
-87.1749657226
 31
0.0
  0
LINE
  5
1E9
330
1F
100
AcDbEntity
  8
0
  6
Continuous
 62
     7
370
    15
100
AcDbLine
 10
-139.0900662798
 20
-85.7528264889
 30
0.0
 11
-100.3047181956
 21
-8.1821303204
 31
0.0
  0
LINE
  5
1EA
330
1F
100
AcDbEntity
  8
0
  6
Continuous
 62
     7
370
    15
100
AcDbLine
 10
-97.4604397282
 20
-6.4242695541
 30
0.0
 11
-61.4116800108
 21
-6.4242695541
 31
0.0
  0
LINE
  5
1EB
330
1F
100
AcDbEntity
  8
0
  6
Continuous
 62
     7
370
    15
100
AcDbLine
 10
-58.554267305
 20
-8.208707793
 30
0.0
 11
-19.7483751067
 21
-87.6637720692
 31
0.0
  0
LINE
  5
1EC
330
1F
100
AcDbEntity
  8
0
  6
Continuous
 62
     7
370
    15
100
AcDbLine
 10
-19.4257878124
 20
-89.0593338302
 30
0.0
 11
-19.4257878124
 21
-123.2442695541
 31
0.0
  0
LINE
  5
1ED
330
1F
100
AcDbEntity
  8
0
  6
Continuous
 62
     7
370
    15
100
AcDbLine
 10
-114.217773939
 20
-291.3287542178
 30
0.0
 11
-114.217773939
 21
-324.9787542178
 31
0.0
  0
LINE
  5
1EE
330
1F
100
AcDbEntity
  8
0
  6
Continuous
 62
     7
370
    15
100
AcDbLine
 10
-187.242773939
 20
-288.1537542178
 30
0.0
 11
-117.392773939
 21
-288.1537542178
 31
0.0
  0
LINE
  5
1EF
330
1F
100
AcDbEntity
  8
0
  6
Continuous
 62
     7
370
    15
100
AcDbLine
 10
-117.392773939
 20
-328.1537542178
 30
0.0
 11
-187.242773939
 21
-328.1537542178
 31
0.0
  0
LINE
  5
1F0
330
1F
100
AcDbEntity
  8
0
  6
Continuous
 62
     7
370
    15
100
AcDbLine
 10
-190.417773939
 20
-324.9787542178
 30
0.0
 11
-190.417773939
 21
-291.3287542178
 31
0.0
  0
LINE
  5
1F1
330
1F
100
AcDbEntity
  8
0
  6
Continuous
 62
     7
370
    15
100
AcDbLine
 10
-149.6041104
 20
-210.3006467968
 30
0.0
 11
-134.6041104
 21
-210.3006467968
 31
0.0
  0
LINE
  5
1F2
330
1F
100
AcDbEntity
  8
0
  6
Continuous
 62
     7
370
    15
100
AcDbLine
 10
-134.6041104
 20
-218.3006467968
 30
0.0
 11
-149.6041104
 21
-218.3006467968
 31
0.0
  0
LINE
  5
1F3
330
1F
100
AcDbEntity
  8
0
  6
Continuous
 62
     7
370
    15
100
AcDbLine
 10
-187.0241104
 20
-194.3006467968
 30
0.0
 11
-157.1841104
 21
-194.3006467968
 31
0.0
  0
LINE
  5
1F4
330
1F
100
AcDbEntity
  8
0
  6
Continuous
 62
     7
370
    15
100
AcDbLine
 10
-152.1041104
 20
-189.2206467968
 30
0.0
 11
-152.1041104
 21
-181.8606467968
 31
0.0
  0
LINE
  5
1F5
330
1F
100
AcDbEntity
  8
0
  6
Continuous
 62
     7
370
    15
100
AcDbLine
 10
-147.0241104
 20
-176.7806467968
 30
0.0
 11
-117.1841104
 21
-176.7806467968
 31
0.0
  0
LINE
  5
1F6
330
1F
100
AcDbEntity
  8
0
  6
Continuous
 62
     7
370
    15
100
AcDbLine
 10
-112.1041104
 20
-181.8606467968
 30
0.0
 11
-112.1041104
 21
-229.2206467968
 31
0.0
  0
LINE
  5
1F7
330
1F
100
AcDbEntity
  8
0
  6
Continuous
 62
     7
370
    15
100
AcDbLine
 10
-117.1841104
 20
-234.3006467968
 30
0.0
 11
-187.0241104
 21
-234.3006467968
 31
0.0
  0
LINE
  5
1F8
330
1F
100
AcDbEntity
  8
0
  6
Continuous
 62
     7
370
    15
100
AcDbLine
 10
-192.1041104
 20
-229.2206467968
 30
0.0
 11
-192.1041104
 21
-199.3806467968
 31
0.0
  0
LINE
  5
1F9
330
1F
100
AcDbEntity
  8
0
  6
Continuous
 62
     7
370
    15
100
AcDbLine
 10
-102.6152932333
 20
-181.4476576718
 30
0.0
 11
-102.6152932333
 21
-171.4476576718
 31
0.0
  0
LINE
  5
1FA
330
1F
100
AcDbEntity
  8
0
  6
Continuous
 62
     7
370
    15
100
AcDbLine
 10
-102.6152932333
 20
-218.5981598952
 30
0.0
 11
-100.5810615491
 21
-218.5981598952
 31
0.0
  0
LINE
  5
1FB
330
1F
100
AcDbEntity
  8
0
  6
Continuous
 62
     7
370
    15
100
AcDbLine
 10
-102.6152932333
 20
-228.5981598952
 30
0.0
 11
-102.6152932333
 21
-218.5981598952
 31
0.0
  0
LINE
  5
1FC
330
1F
100
AcDbEntity
  8
0
  6
Continuous
 62
     7
370
    15
100
AcDbLine
 10
-100.5810615491
 20
-218.5981598952
 30
0.0
 11
-100.5810615491
 21
-181.4476576718
 31
0.0
  0
LINE
  5
1FD
330
1F
100
AcDbEntity
  8
0
  6
Continuous
 62
     7
370
    15
100
AcDbLine
 10
-100.5810615491
 20
-181.4476576718
 30
0.0
 11
-102.6152932333
 21
-181.4476576718
 31
0.0
  0
LINE
  5
1FE
330
1F
100
AcDbEntity
  8
0
  6
Continuous
 62
     7
370
    15
100
AcDbLine
 10
-66.1041140727
 20
-179.8763765139
 30
0.0
 11
-84.4732348043
 21
-179.8763765139
 31
0.0
  0
LINE
  5
1FF
330
1F
100
AcDbEntity
  8
0
  6
Continuous
 62
     7
370
    15
100
AcDbLine
 10
-62.9241140727
 20
-208.2676576718
 30
0.0
 11
-62.9241140727
 21
-183.0563765139
 31
0.0
  0
LINE
  5
200
330
1F
100
AcDbEntity
  8
0
  6
Continuous
 62
     7
370
    15
100
AcDbLine
 10
-22.9241140727
 20
-134.6276576718
 30
0.0
 11
-22.9241140727
 21
-208.2676576718
 31
0.0
  0
LINE
  5
201
330
1F
100
AcDbEntity
  8
0
  6
Continuous
 62
     7
370
    15
100
AcDbLine
 10
-90.8332348043
 20
-228.5981598952
 30
0.0
 11
-102.6152932333
 21
-228.5981598952
 31
0.0
  0
LINE
  5
202
330
1F
100
AcDbEntity
  8
0
  6
Continuous
 62
     7
370
    15
100
AcDbLine
 10
-206.1041140727
 20
-211.4476576718
 30
0.0
 11
-239.7441140727
 21
-211.4476576718
 31
0.0
  0
LINE
  5
203
330
1F
100
AcDbEntity
  8
0
  6
Continuous
 62
     7
370
    15
100
AcDbLine
 10
-26.1041140727
 20
-211.4476576718
 30
0.0
 11
-59.7441140727
 21
-211.4476576718
 31
0.0
  0
LINE
  5
204
330
1F
100
AcDbEntity
  8
0
  6
Continuous
 62
     7
370
    15
100
AcDbLine
 10
-239.7441140727
 20
-131.4476576718
 30
0.0
 11
-26.1041140727
 21
-131.4476576718
 31
0.0
  0
LINE
  5
205
330
1F
100
AcDbEntity
  8
0
  6
Continuous
 62
     7
370
    15
100
AcDbLine
 10
-242.9241140727
 20
-208.2676576718
 30
0.0
 11
-242.9241140727
 21
-134.6276576718
 31
0.0
  0
LINE
  5
206
330
1F
100
AcDbEntity
  8
0
  6
Continuous
 62
     7
370
    15
100
AcDbLine
 10
-202.9241140727
 20
-174.6276576718
 30
0.0
 11
-202.9241140727
 21
-208.2676576718
 31
0.0
  0
LINE
  5
207
330
1F
100
AcDbEntity
  8
0
  6
Continuous
 62
     7
370
    15
100
AcDbLine
 10
-102.6152932333
 20
-171.4476576718
 30
0.0
 11
-199.7441140727
 21
-171.4476576718
 31
0.0
  0
LINE
  5
208
330
1F
100
AcDbEntity
  8
0
  6
Continuous
 62
     7
370
    15
100
AcDbLine
 10
-87.6532348043
 20
-183.0563765139
 30
0.0
 11
-87.6532348043
 21
-225.4181598952
 31
0.0
  0
LINE
  5
209
330
1F
100
AcDbEntity
  8
0
  6
Continuous
 62
     7
370
    15
100
AcDbLine
 10
-205.2704656069
 20
-291.4286698312
 30
0.0
 11
-238.9204656069
 21
-291.4286698312
 31
0.0
  0
LINE
  5
20A
330
1F
100
AcDbEntity
  8
0
  6
Continuous
 62
     7
370
    15
100
AcDbLine
 10
-202.0954656069
 20
-218.4036698312
 30
0.0
 11
-202.0954656069
 21
-288.2536698312
 31
0.0
  0
LINE
  5
20B
330
1F
100
AcDbEntity
  8
0
  6
Continuous
 62
     7
370
    15
100
AcDbLine
 10
-242.0954656069
 20
-288.2536698312
 30
0.0
 11
-242.0954656069
 21
-218.4036698312
 31
0.0
  0
LINE
  5
20C
330
1F
100
AcDbEntity
  8
0
  6
Continuous
 62
     7
370
    15
100
AcDbLine
 10
-238.9204656069
 20
-215.2286698312
 30
0.0
 11
-205.2704656069
 21
-215.2286698312
 31
0.0
  0
LINE
  5
20D
330
1F
100
AcDbEntity
  8
0
  6
Continuous
 62
     7
370
    15
100
AcDbLine
 10
-6.1016882476
 20
16.147696791
 30
0.0
 11
-47.6466378845
 21
25.640717783
 31
0.0
  0
LINE
  5
20E
330
1F
100
AcDbEntity
  8
0
  6
Continuous
 62
     7
370
    15
100
AcDbLine
 10
70.2461447348
 20
15.9082424884
 30
0.0
 11
-3.9787985557
 21
15.9082424884
 31
0.0
  0
LINE
  5
20F
330
1F
100
AcDbEntity
  8
0
  6
Continuous
 62
     7
370
    15
100
AcDbLine
 10
113.4005486433
 20
23.9619114654
 30
0.0
 11
72.0304415708
 21
16.0767690573
 31
0.0
  0
LINE
  5
210
330
1F
100
AcDbEntity
  8
0
  6
Continuous
 62
     7
370
    15
100
AcDbLine
 10
-55.0537481926
 20
34.9312634805
 30
0.0
 11
-55.0537481926
 21
38.4973254649
 31
0.0
  0
LINE
  5
211
330
1F
100
AcDbEntity
  8
0
  6
Continuous
 62
     7
370
    15
100
AcDbLine
 10
121.1462518074
 20
38.6134231007
 30
0.0
 11
121.1462518074
 21
33.3233848965
 31
0.0
  0
LINE
  5
212
330
1F
100
AcDbEntity
  8
0
  6
Continuous
 62
     7
370
    15
100
AcDbLine
 10
75.8988670482
 20
55.7117398208
 30
0.0
 11
113.5415381619
 21
47.9469204331
 31
0.0
  0
LINE
  5
213
330
1F
100
AcDbEntity
  8
0
  6
Continuous
 62
     7
370
    15
100
AcDbLine
 10
-47.3071416729
 20
47.8589710305
 30
0.0
 11
-5.9374985048
 21
55.739888054
 31
0.0
  0
LINE
  5
214
330
1F
100
AcDbEntity
  8
0
  6
Continuous
 62
     7
370
    15
100
AcDbLine
 10
-4.1541050246
 20
55.9082424884
 30
0.0
 11
73.9735806937
 21
55.9082424884
 31
0.0
  0
LINE
  5
215
330
1F
100
AcDbEntity
  8
0
  6
Continuous
 62
     7
370
    15
100
AcDbLine
 10
-63.3477843784
 20
-288.7238955899
 30
0.0
 11
-63.3477843784
 21
-218.8738955899
 31
0.0
  0
LINE
  5
216
330
1F
100
AcDbEntity
  8
0
  6
Continuous
 62
     7
370
    15
100
AcDbLine
 10
-60.1727843784
 20
-215.6988955899
 30
0.0
 11
-26.5227843784
 21
-215.6988955899
 31
0.0
  0
LINE
  5
217
330
1F
100
AcDbEntity
  8
0
  6
Continuous
 62
     7
370
    15
100
AcDbLine
 10
-23.3477843784
 20
-218.8738955899
 30
0.0
 11
-23.3477843784
 21
-288.7238955899
 31
0.0
  0
LINE
  5
218
330
1F
100
AcDbEntity
  8
0
  6
Continuous
 62
     7
370
    15
100
AcDbLine
 10
-26.5227843784
 20
-291.8988955899
 30
0.0
 11
-60.1727843784
 21
-291.8988955899
 31
0.0
  0
LINE
  5
219
330
1F
100
AcDbEntity
  8
0
  6
Continuous
 62
     7
370
    15
100
AcDbLine
 10
-18.1889059068
 20
-278.2731855269
 30
0.0
 11
-18.1889059068
 21
-229.1842216804
 31
0.0
  0
LINE
  5
21A
330
1F
100
AcDbEntity
  8
0
  6
Continuous
 62
     7
370
    15
100
AcDbLine
 10
-15.5461532717
 20
-224.7270672874
 30
0.0
 11
38.248123164
 21
-195.3114476053
 31
0.0
  0
LINE
  5
21B
330
1F
100
AcDbEntity
  8
0
  6
Continuous
 62
     7
370
    15
100
AcDbLine
 10
39.771402767
 20
-194.9221691009
 30
0.0
 11
77.6448942816
 21
-194.9221691009
 31
0.0
  0
LINE
  5
21C
330
1F
100
AcDbEntity
  8
0
  6
Continuous
 62
     7
370
    15
100
AcDbLine
 10
79.8899583119
 20
-195.8521050706
 30
0.0
 11
118.0300863724
 21
-233.9922331311
 31
0.0
  0
LINE
  5
21D
330
1F
100
AcDbEntity
  8
0
  6
Continuous
 62
     7
370
    15
100
AcDbLine
 10
118.9600223421
 20
-236.2372971614
 30
0.0
 11
118.9600223421
 21
-272.0755000969
 31
0.0
  0
LINE
  5
21E
330
1F
100
AcDbEntity
  8
0
  6
Continuous
 62
     7
370
    15
100
AcDbLine
 10
39.2508788979
 20
-283.6403566651
 30
0.0
 11
116.1302292695
 21
-275.2316777182
 31
0.0
  0
LINE
  5
21F
330
1F
100
AcDbEntity
  8
0
  6
Continuous
 62
     7
370
    15
100
AcDbLine
 10
-13.1400170179
 20
-283.3530902601
 30
0.0
 11
38.667436703
 21
-283.6703772042
 31
0.0
  0
ARC
  5
220
330
1F
100
AcDbEntity
  8
0
  6
Continuous
 62
     7
370
    15
100
AcDbCircle
 10
-206.6371652184
 20
-299.9698926619
 30
0.0
 40
3.17999999999995
100
AcDbArc
 50
0.0
 51
90.0
  0
ARC
  5
221
330
1F
100
AcDbEntity
  8
0
  6
Continuous
 62
     7
370
    15
100
AcDbCircle
 10
-200.2771652184
 20
-333.6098926619
 30
0.0
 40
3.180000000000007
100
AcDbArc
 50
180.0
 51
270.0
  0
ARC
  5
222
330
1F
100
AcDbEntity
  8
0
  6
Continuous
 62
     7
370
    15
100
AcDbCircle
 10
-60.2771652184
 20
-299.9698926619
 30
0.0
 40
3.180000000000071
100
AcDbArc
 50
90.0
 51
180.0
  0
ARC
  5
223
330
1F
100
AcDbEntity
  8
0
  6
Continuous
 62
     7
370
    15
100
AcDbCircle
 10
-85.00628595
 20
-325.1811738198
 30
0.0
 40
3.180000000000064
100
AcDbArc
 50
180.0
 51
270.0
  0
ARC
  5
224
330
1F
100
AcDbEntity
  8
0
  6
Continuous
 62
     7
370
    15
100
AcDbCircle
 10
-66.6371652184
 20
-325.1811738198
 30
0.0
 40
3.179999999999893
100
AcDbArc
 50
270.0
 51
0.0
  0
ARC
  5
225
330
1F
100
AcDbEntity
  8
0
  6
Continuous
 62
     7
370
    15
100
AcDbCircle
 10
-26.6371652184
 20
-299.9698926619
 30
0.0
 40
3.179999999999893
100
AcDbArc
 50
0.0
 51
90.0
  0
ARC
  5
226
330
1F
100
AcDbEntity
  8
0
  6
Continuous
 62
     7
370
    15
100
AcDbCircle
 10
-26.6371652184
 20
-373.6098926619
 30
0.0
 40
3.17999999999995
100
AcDbArc
 50
270.0
 51
0.0
  0
ARC
  5
227
330
1F
100
AcDbEntity
  8
0
  6
Continuous
 62
     7
370
    15
100
AcDbCircle
 10
-240.2771652184
 20
-373.6098926619
 30
0.0
 40
3.180000000000035
100
AcDbArc
 50
180.0
 51
270.0
  0
ARC
  5
228
330
1F
100
AcDbEntity
  8
0
  6
Continuous
 62
     7
370
    15
100
AcDbCircle
 10
-240.2771652184
 20
-299.9698926619
 30
0.0
 40
3.180000000000035
100
AcDbArc
 50
90.0
 51
180.0
  0
ARC
  5
229
330
1F
100
AcDbEntity
  8
0
  6
Continuous
 62
     7
370
    15
100
AcDbCircle
 10
-91.36628595
 20
-282.8193904385
 30
0.0
 40
3.180000000000035
100
AcDbArc
 50
0.0
 51
90.0
  0
ARC
  5
22A
330
1F
100
AcDbEntity
  8
0
  6
Continuous
 62
     7
370
    15
100
AcDbCircle
 10
86.2793658065
 20
-44.556690213
 30
0.0
 40
3.175000000000011
100
AcDbArc
 50
90.0
 51
180.0
  0
ARC
  5
22B
330
1F
100
AcDbEntity
  8
0
  6
Continuous
 62
     7
370
    15
100
AcDbCircle
 10
119.9293658065
 20
-114.406690213
 30
0.0
 40
3.174999999999955
100
AcDbArc
 50
270.0
 51
0.0
  0
ARC
  5
22C
330
1F
100
AcDbEntity
  8
0
  6
Continuous
 62
     7
370
    15
100
AcDbCircle
 10
119.9293658065
 20
-44.556690213
 30
0.0
 40
3.175000000000082
100
AcDbArc
 50
0.0
 51
90.0
  0
ARC
  5
22D
330
1F
100
AcDbEntity
  8
0
  6
Continuous
 62
     7
370
    15
100
AcDbCircle
 10
86.2793658065
 20
-114.406690213
 30
0.0
 40
3.175000000000082
100
AcDbArc
 50
180.0
 51
270.0
  0
ARC
  5
22E
330
1F
100
AcDbEntity
  8
0
  6
Continuous
 62
     7
370
    15
100
AcDbCircle
 10
66.3054819545
 20
-36.1948644128
 30
0.0
 40
3.180000000000021
100
AcDbArc
 50
0.0
 51
90.0
  0
ARC
  5
22F
330
1F
100
AcDbEntity
  8
0
  6
Continuous
 62
     7
370
    15
100
AcDbCircle
 10
66.3054819545
 20
-122.8348644123
 30
0.0
 40
3.179999999999993
100
AcDbArc
 50
270.0
 51
0.0
  0
ARC
  5
230
330
1F
100
AcDbEntity
  8
0
  6
Continuous
 62
     7
370
    15
100
AcDbCircle
 10
-12.1345180455
 20
-122.8348644123
 30
0.0
 40
3.180000000000007
100
AcDbArc
 50
180.0
 51
270.0
  0
ARC
  5
231
330
1F
100
AcDbEntity
  8
0
  6
Continuous
 62
     7
370
    15
100
AcDbCircle
 10
-12.1345180455
 20
-36.1948644128
 30
0.0
 40
3.180000000000042
100
AcDbArc
 50
90.0
 51
180.0
  0
ARC
  5
232
330
1F
100
AcDbEntity
  8
0
  6
Continuous
 62
     7
370
    15
100
AcDbCircle
 10
-22.7808745197
 20
-18.3839874811
 30
0.0
 40
4.000000000000039
100
AcDbArc
 50
180.0
 51
228.0
  0
ARC
  5
233
330
1F
100
AcDbEntity
  8
0
  6
Continuous
 62
     7
370
    15
100
AcDbCircle
 10
-22.7808745197
 20
0.0461021504
 30
0.0
 40
3.999999999999951
100
AcDbArc
 50
132.0
 51
180.0
  0
ARC
  5
234
330
1F
100
AcDbEntity
  8
0
  6
Continuous
 62
     7
370
    15
100
AcDbCircle
 10
-15.2454183796
 20
6.8310573346
 30
0.0
 40
3.999999999999897
100
AcDbArc
 50
90.0
 51
132.0
  0
ARC
  5
235
330
1F
100
AcDbEntity
  8
0
  6
Continuous
 62
     7
370
    15
100
AcDbCircle
 10
29.5636693402
 20
6.8310573346
 30
0.0
 40
3.999999999999946
100
AcDbArc
 50
48.0
 51
90.0
  0
ARC
  5
236
330
1F
100
AcDbEntity
  8
0
  6
Continuous
 62
     7
370
    15
100
AcDbCircle
 10
37.0991254803
 20
0.0461021504
 30
0.0
 40
3.999999999999957
100
AcDbArc
 50
0.0
 51
48.0
  0
ARC
  5
237
330
1F
100
AcDbEntity
  8
0
  6
Continuous
 62
     7
370
    15
100
AcDbCircle
 10
37.0991254803
 20
-18.3839874811
 30
0.0
 40
4.000000000000007
100
AcDbArc
 50
312.0
 51
0.0
  0
ARC
  5
238
330
1F
100
AcDbEntity
  8
0
  6
Continuous
 62
     7
370
    15
100
AcDbCircle
 10
29.5636693402
 20
-25.1689426654
 30
0.0
 40
3.999999999999725
100
AcDbArc
 50
270.0
 51
312.0
  0
ARC
  5
239
330
1F
100
AcDbEntity
  8
0
  6
Continuous
 62
     7
370
    15
100
AcDbCircle
 10
-15.2454183796
 20
-25.1689426654
 30
0.0
 40
4.00000000000016
100
AcDbArc
 50
228.0
 51
270.0
  0
ARC
  5
23A
330
1F
100
AcDbEntity
  8
0
  6
Continuous
 62
     7
370
    15
100
AcDbCircle
 10
-72.569958886
 20
22.7120788898
 30
0.0
 40
9.53000000000003
100
AcDbArc
 50
280.7911431156
 51
0.0
  0
ARC
  5
23B
330
1F
100
AcDbEntity
  8
0
  6
Continuous
 62
     7
370
    15
100
AcDbCircle
 10
-113.9400659586
 20
14.8269364818
 30
0.0
 40
9.530000000001946
100
AcDbArc
 50
270.0
 51
280.7911431156
  0
ARC
  5
23C
330
1F
100
AcDbEntity
  8
0
  6
Continuous
 62
     7
370
    15
100
AcDbCircle
 10
-72.569958886
 20
28.002117094
 30
0.0
 40
9.53000000000003
100
AcDbArc
 50
0.0
 51
78.3446724654
  0
ARC
  5
23D
330
1F
100
AcDbEntity
  8
0
  6
Continuous
 62
     7
370
    15
100
AcDbCircle
 10
-110.2126299997
 20
35.7669364818
 30
0.0
 40
9.529999999995878
100
AcDbArc
 50
78.3446724654
 51
90.0
  0
ARC
  5
23E
330
1F
100
AcDbEntity
  8
0
  6
Continuous
 62
     7
370
    15
100
AcDbCircle
 10
-188.1650092491
 20
14.8269364818
 30
0.0
 40
9.530000000002424
100
AcDbArc
 50
257.1288878574
 51
270.0
  0
ARC
  5
23F
330
1F
100
AcDbEntity
  8
0
  6
Continuous
 62
     7
370
    15
100
AcDbCircle
 10
-229.709958886
 20
24.3199574738
 30
0.0
 40
9.529999999999902
100
AcDbArc
 50
180.0
 51
257.1288878574
  0
ARC
  5
240
330
1F
100
AcDbEntity
  8
0
  6
Continuous
 62
     7
370
    15
100
AcDbCircle
 10
-229.709958886
 20
27.8860194582
 30
0.0
 40
9.529999999999955
100
AcDbArc
 50
100.7856142856
 51
180.0
  0
ARC
  5
241
330
1F
100
AcDbEntity
  8
0
  6
Continuous
 62
     7
370
    15
100
AcDbCircle
 10
-188.3403157179
 20
35.7669364818
 30
0.0
 40
9.530000000004263
100
AcDbArc
 50
90.0
 51
100.7856142856
  0
ARC
  5
242
330
1F
100
AcDbEntity
  8
0
  6
Continuous
 62
     7
370
    15
100
AcDbCircle
 10
-11.3913160084
 20
-144.0628498791
 30
0.0
 40
5.080000000000028
100
AcDbArc
 50
102.0996480907
 51
180.0
  0
ARC
  5
243
330
1F
100
AcDbEntity
  8
0
  6
Continuous
 62
     7
370
    15
100
AcDbCircle
 10
24.0670802519
 20
-136.4614561808
 30
0.0
 40
5.080000000003651
100
AcDbArc
 50
90.0
 51
102.0996480907
  0
ARC
  5
244
330
1F
100
AcDbEntity
  8
0
  6
Continuous
 62
     7
370
    15
100
AcDbCircle
 10
75.5986839916
 20
-136.4614561808
 30
0.0
 40
5.079999999999984
100
AcDbArc
 50
0.0
 51
90.0
  0
ARC
  5
245
330
1F
100
AcDbEntity
  8
0
  6
Continuous
 62
     7
370
    15
100
AcDbCircle
 10
75.5986839916
 20
-183.4514561808
 30
0.0
 40
5.079999999999913
100
AcDbArc
 50
270.0
 51
0.0
  0
ARC
  5
246
330
1F
100
AcDbEntity
  8
0
  6
Continuous
 62
     7
370
    15
100
AcDbCircle
 10
27.2377898273
 20
-193.6114561808
 30
0.0
 40
5.079999999999984
100
AcDbArc
 50
90.0
 51
162.2692743262
  0
ARC
  5
247
330
1F
100
AcDbEntity
  8
0
  6
Continuous
 62
     7
370
    15
100
AcDbCircle
 10
16.9595781559
 20
-192.3964561808
 30
0.0
 40
5.079999999999987
100
AcDbArc
 50
270.0
 51
342.2692743262
  0
ARC
  5
248
330
1F
100
AcDbEntity
  8
0
  6
Continuous
 62
     7
370
    15
100
AcDbCircle
 10
-11.3913160084
 20
-192.3964561808
 30
0.0
 40
5.080000000000069
100
AcDbArc
 50
180.0
 51
270.0
  0
ARC
  5
249
330
1F
100
AcDbEntity
  8
0
  6
Continuous
 62
     7
370
    15
100
AcDbCircle
 10
117.0532155077
 20
-365.2979058347
 30
0.0
 40
3.175000000000054
100
AcDbArc
 50
276.2419143474
 51
0.0
  0
ARC
  5
24A
330
1F
100
AcDbEntity
  8
0
  6
Continuous
 62
     7
370
    15
100
AcDbCircle
 10
117.0532155077
 20
-329.4597028992
 30
0.0
 40
3.175000000000097
100
AcDbArc
 50
0.0
 51
45.0
  0
ARC
  5
24B
330
1F
100
AcDbEntity
  8
0
  6
Continuous
 62
     7
370
    15
100
AcDbCircle
 10
78.9130874472
 20
-291.3195748387
 30
0.0
 40
3.174999999999386
100
AcDbArc
 50
45.0
 51
90.0
  0
ARC
  5
24C
330
1F
100
AcDbEntity
  8
0
  6
Continuous
 62
     7
370
    15
100
AcDbCircle
 10
41.0395959326
 20
-291.3195748387
 30
0.0
 40
3.17500000000075
100
AcDbArc
 50
90.0
 51
118.6705840846
  0
ARC
  5
24D
330
1F
100
AcDbEntity
  8
0
  6
Continuous
 62
     7
370
    15
100
AcDbCircle
 10
-11.8407127412
 20
-322.4066274182
 30
0.0
 40
5.079999999999588
100
AcDbArc
 50
118.6705840846
 51
180.0
  0
ARC
  5
24E
330
1F
100
AcDbEntity
  8
0
  6
Continuous
 62
     7
370
    15
100
AcDbCircle
 10
-11.8407127412
 20
-371.4955912647
 30
0.0
 40
5.079999999999908
100
AcDbArc
 50
180.0
 51
269.6491050186
  0
ARC
  5
24F
330
1F
100
AcDbEntity
  8
0
  6
Continuous
 62
     7
370
    15
100
AcDbCircle
 10
39.9667409798
 20
-371.8128782088
 30
0.0
 40
5.079999999994508
100
AcDbArc
 50
269.6491050186
 51
276.2419143474
  0
ARC
  5
250
330
1F
100
AcDbEntity
  8
0
  6
Continuous
 62
     7
370
    15
100
AcDbCircle
 10
-164.9056009946
 20
-117.3981500324
 30
0.0
 40
3.179999999999978
100
AcDbArc
 50
270.0
 51
333.4349488229
  0
ARC
  5
251
330
1F
100
AcDbEntity
  8
0
  6
Continuous
 62
     7
370
    15
100
AcDbCircle
 10
-200.9543607121
 20
-117.3981500324
 30
0.0
 40
3.180000000000023
100
AcDbArc
 50
206.0309058027
 51
270.0
  0
ARC
  5
252
330
1F
100
AcDbEntity
  8
0
  6
Continuous
 62
     7
370
    15
100
AcDbCircle
 10
-126.1202529104
 20
-39.827453864
 30
0.0
 40
3.180000000000206
100
AcDbArc
 50
333.4349488229
 51
0.0
  0
ARC
  5
253
330
1F
100
AcDbEntity
  8
0
  6
Continuous
 62
     7
370
    15
100
AcDbCircle
 10
-239.7602529104
 20
-3.7581500324
 30
0.0
 40
3.179999999999957
100
AcDbArc
 50
90.0
 51
180.0
  0
ARC
  5
254
330
1F
100
AcDbEntity
  8
0
  6
Continuous
 62
     7
370
    15
100
AcDbCircle
 10
-126.1202529104
 20
-3.7581500324
 30
0.0
 40
3.180000000000021
100
AcDbArc
 50
0.0
 51
90.0
  0
ARC
  5
255
330
1F
100
AcDbEntity
  8
0
  6
Continuous
 62
     7
370
    15
100
AcDbCircle
 10
-239.7602529104
 20
-37.9430857563
 30
0.0
 40
3.179999999999836
100
AcDbArc
 50
180.0
 51
206.0309058027
  0
ARC
  5
256
330
1F
100
AcDbEntity
  8
0
  6
Continuous
 62
     7
370
    15
100
AcDbCircle
 10
-186.3855295512
 20
-245.9121044008
 30
0.0
 40
3.175000000000068
100
AcDbArc
 50
90.0
 51
180.0
  0
ARC
  5
257
330
1F
100
AcDbEntity
  8
0
  6
Continuous
 62
     7
370
    15
100
AcDbCircle
 10
-116.5355295512
 20
-245.9121044008
 30
0.0
 40
3.174999999999983
100
AcDbArc
 50
0.0
 51
90.0
  0
ARC
  5
258
330
1F
100
AcDbEntity
  8
0
  6
Continuous
 62
     7
370
    15
100
AcDbCircle
 10
-116.5355295512
 20
-279.5621044008
 30
0.0
 40
3.175000000000182
100
AcDbArc
 50
270.0
 51
0.0
  0
ARC
  5
259
330
1F
100
AcDbEntity
  8
0
  6
Continuous
 62
     7
370
    15
100
AcDbCircle
 10
-186.3855295512
 20
-279.5621044008
 30
0.0
 40
3.175000000000182
100
AcDbArc
 50
180.0
 51
270.0
  0
ARC
  5
25A
330
1F
100
AcDbEntity
  8
0
  6
Continuous
 62
     7
370
    15
100
AcDbCircle
 10
55.9695057636
 20
-0.8487885346
 30
0.0
 40
3.999999999999972
100
AcDbArc
 50
132.0
 51
180.0
  0
ARC
  5
25B
330
1F
100
AcDbEntity
  8
0
  6
Continuous
 62
     7
370
    15
100
AcDbCircle
 10
55.9695057636
 20
-19.2788781662
 30
0.0
 40
3.999999999999967
100
AcDbArc
 50
180.0
 51
228.0
  0
ARC
  5
25C
330
1F
100
AcDbEntity
  8
0
  6
Continuous
 62
     7
370
    15
100
AcDbCircle
 10
63.5049619037
 20
5.9361666496
 30
0.0
 40
4.000000000000067
100
AcDbArc
 50
90.0
 51
132.0
  0
ARC
  5
25D
330
1F
100
AcDbEntity
  8
0
  6
Continuous
 62
     7
370
    15
100
AcDbCircle
 10
108.3140496235
 20
5.9361666496
 30
0.0
 40
3.999999999999908
100
AcDbArc
 50
48.0
 51
90.0
  0
ARC
  5
25E
330
1F
100
AcDbEntity
  8
0
  6
Continuous
 62
     7
370
    15
100
AcDbCircle
 10
115.8495057636
 20
-0.8487885346
 30
0.0
 40
3.999999999999931
100
AcDbArc
 50
0.0
 51
48.0
  0
ARC
  5
25F
330
1F
100
AcDbEntity
  8
0
  6
Continuous
 62
     7
370
    15
100
AcDbCircle
 10
115.8495057636
 20
-19.2788781662
 30
0.0
 40
4.000000000000306
100
AcDbArc
 50
312.0
 51
0.0
  0
ARC
  5
260
330
1F
100
AcDbEntity
  8
0
  6
Continuous
 62
     7
370
    15
100
AcDbCircle
 10
108.3140496235
 20
-26.0638333504
 30
0.0
 40
3.999999999999897
100
AcDbArc
 50
270.0
 51
312.0
  0
ARC
  5
261
330
1F
100
AcDbEntity
  8
0
  6
Continuous
 62
     7
370
    15
100
AcDbCircle
 10
63.5049619037
 20
-26.0638333504
 30
0.0
 40
3.999999999999776
100
AcDbArc
 50
228.0
 51
270.0
  0
ARC
  5
262
330
1F
100
AcDbEntity
  8
0
  6
Continuous
 62
     7
370
    15
100
AcDbCircle
 10
121.9452456338
 20
-123.5466091991
 30
0.0
 40
3.175000000000026
100
AcDbArc
 50
0.0
 51
90.0
  0
ARC
  5
263
330
1F
100
AcDbEntity
  8
0
  6
Continuous
 62
     7
370
    15
100
AcDbCircle
 10
88.2952456338
 20
-123.5466091991
 30
0.0
 40
3.174999999999997
100
AcDbArc
 50
90.0
 51
180.0
  0
ARC
  5
264
330
1F
100
AcDbEntity
  8
0
  6
Continuous
 62
     7
370
    15
100
AcDbCircle
 10
121.9452456338
 20
-193.3966091991
 30
0.0
 40
3.174999999999983
100
AcDbArc
 50
270.0
 51
0.0
  0
ARC
  5
265
330
1F
100
AcDbEntity
  8
0
  6
Continuous
 62
     7
370
    15
100
AcDbCircle
 10
88.2952456338
 20
-193.3966091991
 30
0.0
 40
3.175000000000068
100
AcDbArc
 50
180.0
 51
270.0
  0
ARC
  5
266
330
1F
100
AcDbEntity
  8
0
  6
Continuous
 62
     7
370
    15
100
AcDbCircle
 10
-22.6057878124
 20
-123.2442695541
 30
0.0
 40
3.179999999999993
100
AcDbArc
 50
270.0
 51
0.0
  0
ARC
  5
267
330
1F
100
AcDbEntity
  8
0
  6
Continuous
 62
     7
370
    15
100
AcDbCircle
 10
-136.2457878124
 20
-123.2442695541
 30
0.0
 40
3.17999999999995
100
AcDbArc
 50
180.0
 51
270.0
  0
ARC
  5
268
330
1F
100
AcDbEntity
  8
0
  6
Continuous
 62
     7
370
    15
100
AcDbCircle
 10
-136.2457878124
 20
-87.1749657226
 30
0.0
 40
3.180000000000873
100
AcDbArc
 50
153.4349488229
 51
180.0
  0
ARC
  5
269
330
1F
100
AcDbEntity
  8
0
  6
Continuous
 62
     7
370
    15
100
AcDbCircle
 10
-97.4604397282
 20
-9.6042695541
 30
0.0
 40
3.179999999999988
100
AcDbArc
 50
90.0
 51
153.4349488229
  0
ARC
  5
26A
330
1F
100
AcDbEntity
  8
0
  6
Continuous
 62
     7
370
    15
100
AcDbCircle
 10
-61.4116800108
 20
-9.6042695541
 30
0.0
 40
3.180000000000048
100
AcDbArc
 50
26.0309058027
 51
90.0
  0
ARC
  5
26B
330
1F
100
AcDbEntity
  8
0
  6
Continuous
 62
     7
370
    15
100
AcDbCircle
 10
-22.6057878124
 20
-89.0593338302
 30
0.0
 40
3.179999999999854
100
AcDbArc
 50
0.0
 51
26.0309058027
  0
ARC
  5
26C
330
1F
100
AcDbEntity
  8
0
  6
Continuous
 62
     7
370
    15
100
AcDbCircle
 10
-187.242773939
 20
-291.3287542178
 30
0.0
 40
3.175000000000011
100
AcDbArc
 50
90.0
 51
180.0
  0
ARC
  5
26D
330
1F
100
AcDbEntity
  8
0
  6
Continuous
 62
     7
370
    15
100
AcDbCircle
 10
-117.392773939
 20
-291.3287542178
 30
0.0
 40
3.174999999999898
100
AcDbArc
 50
0.0
 51
90.0
  0
ARC
  5
26E
330
1F
100
AcDbEntity
  8
0
  6
Continuous
 62
     7
370
    15
100
AcDbCircle
 10
-117.392773939
 20
-324.9787542178
 30
0.0
 40
3.175000000000011
100
AcDbArc
 50
270.0
 51
0.0
  0
ARC
  5
26F
330
1F
100
AcDbEntity
  8
0
  6
Continuous
 62
     7
370
    15
100
AcDbCircle
 10
-187.242773939
 20
-324.9787542178
 30
0.0
 40
3.175000000000011
100
AcDbArc
 50
180.0
 51
270.0
  0
ARC
  5
270
330
1F
100
AcDbEntity
  8
0
  6
Continuous
 62
     7
370
    15
100
AcDbCircle
 10
-134.6041104
 20
-214.3006467968
 30
0.0
 40
4.000000000000028
100
AcDbArc
 50
270.0
 51
90.0
  0
ARC
  5
271
330
1F
100
AcDbEntity
  8
0
  6
Continuous
 62
     7
370
    15
100
AcDbCircle
 10
-149.6041104
 20
-214.3006467968
 30
0.0
 40
4.0
100
AcDbArc
 50
90.0
 51
270.0
  0
ARC
  5
272
330
1F
100
AcDbEntity
  8
0
  6
Continuous
 62
     7
370
    15
100
AcDbCircle
 10
-187.0241104
 20
-199.3806467968
 30
0.0
 40
5.079999999999984
100
AcDbArc
 50
90.0
 51
180.0
  0
ARC
  5
273
330
1F
100
AcDbEntity
  8
0
  6
Continuous
 62
     7
370
    15
100
AcDbCircle
 10
-157.1841104
 20
-189.2206467968
 30
0.0
 40
5.080000000000041
100
AcDbArc
 50
270.0
 51
0.0
  0
ARC
  5
274
330
1F
100
AcDbEntity
  8
0
  6
Continuous
 62
     7
370
    15
100
AcDbCircle
 10
-147.0241104
 20
-181.8606467968
 30
0.0
 40
5.080000000000013
100
AcDbArc
 50
90.0
 51
180.0
  0
ARC
  5
275
330
1F
100
AcDbEntity
  8
0
  6
Continuous
 62
     7
370
    15
100
AcDbCircle
 10
-117.1841104
 20
-181.8606467968
 30
0.0
 40
5.079999999999984
100
AcDbArc
 50
0.0
 51
90.0
  0
ARC
  5
276
330
1F
100
AcDbEntity
  8
0
  6
Continuous
 62
     7
370
    15
100
AcDbCircle
 10
-117.1841104
 20
-229.2206467968
 30
0.0
 40
5.079999999999956
100
AcDbArc
 50
270.0
 51
0.0
  0
ARC
  5
277
330
1F
100
AcDbEntity
  8
0
  6
Continuous
 62
     7
370
    15
100
AcDbCircle
 10
-187.0241104
 20
-229.2206467968
 30
0.0
 40
5.079999999999956
100
AcDbArc
 50
180.0
 51
270.0
  0
ARC
  5
278
330
1F
100
AcDbEntity
  8
0
  6
Continuous
 62
     7
370
    15
100
AcDbCircle
 10
-84.4732348043
 20
-183.0563765139
 30
0.0
 40
3.180000000000049
100
AcDbArc
 50
90.0
 51
180.0
  0
ARC
  5
279
330
1F
100
AcDbEntity
  8
0
  6
Continuous
 62
     7
370
    15
100
AcDbCircle
 10
-66.1041140727
 20
-183.0563765139
 30
0.0
 40
3.180000000000035
100
AcDbArc
 50
0.0
 51
90.0
  0
ARC
  5
27A
330
1F
100
AcDbEntity
  8
0
  6
Continuous
 62
     7
370
    15
100
AcDbCircle
 10
-239.7441140727
 20
-134.6276576718
 30
0.0
 40
3.179999999999978
100
AcDbArc
 50
90.0
 51
180.0
  0
ARC
  5
27B
330
1F
100
AcDbEntity
  8
0
  6
Continuous
 62
     7
370
    15
100
AcDbCircle
 10
-199.7441140727
 20
-174.6276576718
 30
0.0
 40
3.180000000000035
100
AcDbArc
 50
90.0
 51
180.0
  0
ARC
  5
27C
330
1F
100
AcDbEntity
  8
0
  6
Continuous
 62
     7
370
    15
100
AcDbCircle
 10
-26.1041140727
 20
-208.2676576718
 30
0.0
 40
3.180000000000064
100
AcDbArc
 50
270.0
 51
0.0
  0
ARC
  5
27D
330
1F
100
AcDbEntity
  8
0
  6
Continuous
 62
     7
370
    15
100
AcDbCircle
 10
-26.1041140727
 20
-134.6276576718
 30
0.0
 40
3.180000000000007
100
AcDbArc
 50
0.0
 51
90.0
  0
ARC
  5
27E
330
1F
100
AcDbEntity
  8
0
  6
Continuous
 62
     7
370
    15
100
AcDbCircle
 10
-239.7441140727
 20
-208.2676576718
 30
0.0
 40
3.180000000000092
100
AcDbArc
 50
180.0
 51
270.0
  0
ARC
  5
27F
330
1F
100
AcDbEntity
  8
0
  6
Continuous
 62
     7
370
    15
100
AcDbCircle
 10
-206.1041140727
 20
-208.2676576718
 30
0.0
 40
3.180000000000121
100
AcDbArc
 50
270.0
 51
0.0
  0
ARC
  5
280
330
1F
100
AcDbEntity
  8
0
  6
Continuous
 62
     7
370
    15
100
AcDbCircle
 10
-59.7441140727
 20
-208.2676576718
 30
0.0
 40
3.180000000000007
100
AcDbArc
 50
180.0
 51
270.0
  0
ARC
  5
281
330
1F
100
AcDbEntity
  8
0
  6
Continuous
 62
     7
370
    15
100
AcDbCircle
 10
-90.8332348043
 20
-225.4181598952
 30
0.0
 40
3.180000000000092
100
AcDbArc
 50
270.0
 51
0.0
  0
ARC
  5
282
330
1F
100
AcDbEntity
  8
0
  6
Continuous
 62
     7
370
    15
100
AcDbCircle
 10
-205.2704656069
 20
-288.2536698312
 30
0.0
 40
3.174999999999983
100
AcDbArc
 50
270.0
 51
0.0
  0
ARC
  5
283
330
1F
100
AcDbEntity
  8
0
  6
Continuous
 62
     7
370
    15
100
AcDbCircle
 10
-205.2704656069
 20
-218.4036698312
 30
0.0
 40
3.175000000000011
100
AcDbArc
 50
0.0
 51
90.0
  0
ARC
  5
284
330
1F
100
AcDbEntity
  8
0
  6
Continuous
 62
     7
370
    15
100
AcDbCircle
 10
-238.9204656069
 20
-288.2536698312
 30
0.0
 40
3.175000000000153
100
AcDbArc
 50
180.0
 51
270.0
  0
ARC
  5
285
330
1F
100
AcDbEntity
  8
0
  6
Continuous
 62
     7
370
    15
100
AcDbCircle
 10
-238.9204656069
 20
-218.4036698312
 30
0.0
 40
3.174999999999983
100
AcDbArc
 50
90.0
 51
180.0
  0
ARC
  5
286
330
1F
100
AcDbEntity
  8
0
  6
Continuous
 62
     7
370
    15
100
AcDbCircle
 10
70.2461447348
 20
25.4382424884
 30
0.0
 40
9.530000000002486
100
AcDbArc
 50
270.0
 51
280.7911431156
  0
ARC
  5
287
330
1F
100
AcDbEntity
  8
0
  6
Continuous
 62
     7
370
    15
100
AcDbCircle
 10
-45.5237481926
 20
34.9312634805
 30
0.0
 40
9.529999999999946
100
AcDbArc
 50
180.0
 51
257.1288878574
  0
ARC
  5
288
330
1F
100
AcDbEntity
  8
0
  6
Continuous
 62
     7
370
    15
100
AcDbCircle
 10
-3.9787985557
 20
25.4382424884
 30
0.0
 40
9.53000000000224
100
AcDbArc
 50
257.1288878574
 51
270.0
  0
ARC
  5
289
330
1F
100
AcDbEntity
  8
0
  6
Continuous
 62
     7
370
    15
100
AcDbCircle
 10
111.6162518074
 20
33.3233848965
 30
0.0
 40
9.53000000000007
100
AcDbArc
 50
280.7911431156
 51
0.0
  0
ARC
  5
28A
330
1F
100
AcDbEntity
  8
0
  6
Continuous
 62
     7
370
    15
100
AcDbCircle
 10
111.6162518074
 20
38.6134231007
 30
0.0
 40
9.53000000000003
100
AcDbArc
 50
0.0
 51
78.3446724654
  0
ARC
  5
28B
330
1F
100
AcDbEntity
  8
0
  6
Continuous
 62
     7
370
    15
100
AcDbCircle
 10
73.9735806937
 20
46.3782424885
 30
0.0
 40
9.529999999995619
100
AcDbArc
 50
78.3446724654
 51
90.0
  0
ARC
  5
28C
330
1F
100
AcDbEntity
  8
0
  6
Continuous
 62
     7
370
    15
100
AcDbCircle
 10
-45.5237481926
 20
38.4973254649
 30
0.0
 40
9.529999999999951
100
AcDbArc
 50
100.7856142856
 51
180.0
  0
ARC
  5
28D
330
1F
100
AcDbEntity
  8
0
  6
Continuous
 62
     7
370
    15
100
AcDbCircle
 10
-4.1541050246
 20
46.3782424884
 30
0.0
 40
9.530000000004328
100
AcDbArc
 50
90.0
 51
100.7856142856
  0
ARC
  5
28E
330
1F
100
AcDbEntity
  8
0
  6
Continuous
 62
     7
370
    15
100
AcDbCircle
 10
-26.5227843784
 20
-218.8738955899
 30
0.0
 40
3.175000000000011
100
AcDbArc
 50
0.0
 51
90.0
  0
ARC
  5
28F
330
1F
100
AcDbEntity
  8
0
  6
Continuous
 62
     7
370
    15
100
AcDbCircle
 10
-26.5227843784
 20
-288.7238955899
 30
0.0
 40
3.174999999999876
100
AcDbArc
 50
270.0
 51
0.0
  0
ARC
  5
290
330
1F
100
AcDbEntity
  8
0
  6
Continuous
 62
     7
370
    15
100
AcDbCircle
 10
-60.1727843784
 20
-288.7238955899
 30
0.0
 40
3.175000000000075
100
AcDbArc
 50
180.0
 51
270.0
  0
ARC
  5
291
330
1F
100
AcDbEntity
  8
0
  6
Continuous
 62
     7
370
    15
100
AcDbCircle
 10
-60.1727843784
 20
-218.8738955899
 30
0.0
 40
3.17499999999999
100
AcDbArc
 50
90.0
 51
180.0
  0
ARC
  5
292
330
1F
100
AcDbEntity
  8
0
  6
Continuous
 62
     7
370
    15
100
AcDbCircle
 10
-13.1089059068
 20
-278.2731855269
 30
0.0
 40
5.079999999999973
100
AcDbArc
 50
180.0
 51
269.6491050186
  0
ARC
  5
293
330
1F
100
AcDbEntity
  8
0
  6
Continuous
 62
     7
370
    15
100
AcDbCircle
 10
-13.1089059068
 20
-229.1842216804
 30
0.0
 40
5.079999999999933
100
AcDbArc
 50
118.6705840846
 51
180.0
  0
ARC
  5
294
330
1F
100
AcDbEntity
  8
0
  6
Continuous
 62
     7
370
    15
100
AcDbCircle
 10
39.771402767
 20
-198.0971691009
 30
0.0
 40
3.175000000000125
100
AcDbArc
 50
90.0
 51
118.6705840846
  0
ARC
  5
295
330
1F
100
AcDbEntity
  8
0
  6
Continuous
 62
     7
370
    15
100
AcDbCircle
 10
77.6448942816
 20
-198.0971691009
 30
0.0
 40
3.174999999999736
100
AcDbArc
 50
45.0
 51
90.0
  0
ARC
  5
296
330
1F
100
AcDbEntity
  8
0
  6
Continuous
 62
     7
370
    15
100
AcDbCircle
 10
115.7850223421
 20
-236.2372971614
 30
0.0
 40
3.175000000000088
100
AcDbArc
 50
0.0
 51
45.0
  0
ARC
  5
297
330
1F
100
AcDbEntity
  8
0
  6
Continuous
 62
     7
370
    15
100
AcDbCircle
 10
115.7850223421
 20
-272.0755000969
 30
0.0
 40
3.175000000000111
100
AcDbArc
 50
276.2419143474
 51
360.0
  0
ARC
  5
298
330
1F
100
AcDbEntity
  8
0
  6
Continuous
 62
     7
370
    15
100
AcDbCircle
 10
38.6985478141
 20
-278.5904724709
 30
0.0
 40
5.080000000026673
100
AcDbArc
 50
269.6491050186
 51
276.2419143474
  0
ENDSEC
  0
SECTION
  2
OBJECTS
  0
DICTIONARY
  5
C
330
0
100
AcDbDictionary
281
     1
  3
ACAD_GROUP
350
D
  3
ACAD_LAYOUT
350
1A
  3
ACAD_MLINESTYLE
350
17
  3
ACAD_PLOTSETTINGS
350
19
  3
ACAD_PLOTSTYLENAME
350
E
  0
DICTIONARY
  5
D
102
{ACAD_REACTORS
330
C
102
}
330
C
100
AcDbDictionary
281
     1
  0
DICTIONARY
  5
1A
102
{ACAD_REACTORS
330
C
102
}
330
C
100
AcDbDictionary
281
     1
  3
Layout1
350
1E
  3
Layout2
350
26
  3
Model
350
22
  0
DICTIONARY
  5
17
102
{ACAD_REACTORS
330
C
102
}
330
C
100
AcDbDictionary
281
     1
  3
Standard
350
18
  0
DICTIONARY
  5
19
102
{ACAD_REACTORS
330
C
102
}
330
C
100
AcDbDictionary
281
     1
  0
ACDBDICTIONARYWDFLT
  5
E
102
{ACAD_REACTORS
330
C
102
}
330
C
100
AcDbDictionary
281
     1
  3
Normal
350
F
100
AcDbDictionaryWithDefault
340
F
  0
LAYOUT
  5
1E
102
{ACAD_REACTORS
330
1A
102
}
330
1A
100
AcDbPlotSettings
  1

  2
none_device
  4

  6

 40
0.0
 41
0.0
 42
0.0
 43
0.0
 44
0.0
 45
0.0
 46
0.0
 47
0.0
 48
0.0
 49
0.0
140
0.0
141
0.0
142
1.0
143
1.0
 70
   688
 72
     0
 73
     0
 74
     5
  7

 75
    16
147
1.0
148
0.0
149
0.0
100
AcDbLayout
  1
Layout1
 70
     1
 71
     1
 10
0.0
 20
0.0
 11
420.0
 21
297.0
 12
0.0
 22
0.0
 32
0.0
 14
1.0000000000E+20
 24
1.0000000000E+20
 34
1.0000000000E+20
 15
-1.0000000000E+20
 25
-1.0000000000E+20
 35
-1.0000000000E+20
146
0.0
 13
0.0
 23
0.0
 33
0.0
 16
1.0
 26
0.0
 36
0.0
 17
0.0
 27
1.0
 37
0.0
 76
     0
330
1B
  0
LAYOUT
  5
26
102
{ACAD_REACTORS
330
1A
102
}
330
1A
100
AcDbPlotSettings
  1

  2
none_device
  4

  6

 40
0.0
 41
0.0
 42
0.0
 43
0.0
 44
0.0
 45
0.0
 46
0.0
 47
0.0
 48
0.0
 49
0.0
140
0.0
141
0.0
142
1.0
143
1.0
 70
   688
 72
     0
 73
     0
 74
     5
  7

 75
    16
147
1.0
148
0.0
149
0.0
100
AcDbLayout
  1
Layout2
 70
     1
 71
     2
 10
0.0
 20
0.0
 11
0.0
 21
0.0
 12
0.0
 22
0.0
 32
0.0
 14
0.0
 24
0.0
 34
0.0
 15
0.0
 25
0.0
 35
0.0
146
0.0
 13
0.0
 23
0.0
 33
0.0
 16
1.0
 26
0.0
 36
0.0
 17
0.0
 27
1.0
 37
0.0
 76
     0
330
23
  0
LAYOUT
  5
22
102
{ACAD_REACTORS
330
1A
102
}
330
1A
100
AcDbPlotSettings
  1

  2
none_device
  4
ANSI_A_(11.00_x_8.50_Inches)
  6

 40
6.35
 41
19.05
 42
6.35000508
 43
19.05000254
 44
279.4
 45
215.9
 46
162.5706375177
 47
168.159933308
 48
0.0
 49
0.0
140
0.0
141
0.0
142
0.0194431105
143
1.0
 70
  1696
 72
     0
 73
     0
 74
     0
  7

 75
     0
147
0.0179189148
148
0.0
149
0.0
100
AcDbLayout
  1
Model
 70
     1
 71
     0
 10
0.0
 20
0.0
 11
420.0
 21
297.0
 12
0.0
 22
0.0
 32
0.0
 14
-243.4571652184
 24
-376.8928782088
 34
0.0
 15
125.1202456338
 25
55.9082424884
 35
0.0
146
0.0
 13
0.0
 23
0.0
 33
0.0
 16
1.0
 26
0.0
 36
0.0
 17
0.0
 27
1.0
 37
0.0
 76
     0
330
1F
331
29
  0
MLINESTYLE
  5
18
102
{ACAD_REACTORS
330
17
102
}
330
17
100
AcDbMlineStyle
  2
Standard
 70
     0
  3

 62
   256
 51
90.0
 52
90.0
 71
     2
 49
0.5
 62
   256
  6
BYLAYER
 49
-0.5
 62
   256
  6
BYLAYER
  0
ACDBPLACEHOLDER
  5
F
102
{ACAD_REACTORS
330
E
102
}
330
E
  0
ENDSEC
  0
EOF
